<?xml version="1.0" standalone="no"?>
<!DOCTYPE svg PUBLIC "-//W3C//DTD SVG 20010904//EN"
 "http://www.w3.org/TR/2001/REC-SVG-20010904/DTD/svg10.dtd">
<svg version="1.0" xmlns="http://www.w3.org/2000/svg"
 width="275.000000pt" height="183.000000pt" viewBox="0 0 275.000000 183.000000"
 preserveAspectRatio="xMidYMid meet">
<g transform="translate(0.000000,183.000000) scale(0.100000,-0.100000)"
fill="#000000" stroke="none">
<path d="M80 1820 c19 -13 30 -13 30 0 0 6 -10 10 -22 10 -19 0 -20 -2 -8 -10z"/>
<path d="M160 1819 c0 -5 -4 -8 -9 -5 -5 3 -11 -10 -13 -29 -4 -39 3 -45 51
-37 24 4 37 0 45 -10 10 -14 15 -14 36 -3 23 12 21 13 -33 20 -31 4 -64 5 -72
1 -13 -4 -15 -1 -11 14 3 11 9 29 12 40 3 11 3 20 0 20 -3 0 -6 -5 -6 -11z"/>
<path d="M520 1819 c0 -5 5 -7 10 -4 6 3 10 8 10 11 0 2 -4 4 -10 4 -5 0 -10
-5 -10 -11z"/>
<path d="M933 1823 c-7 -2 -13 -11 -13 -19 0 -8 -10 -14 -22 -14 -19 0 -20 -2
-8 -10 8 -5 11 -10 5 -10 -12 0 16 -20 29 -20 5 0 3 7 -4 15 -11 13 -10 14 2
10 11 -4 19 3 26 24 11 31 9 34 -15 24z"/>
<path d="M1890 1823 c0 -5 4 -14 9 -22 8 -12 14 -12 33 -4 l23 12 -22 0 c-13
1 -23 6 -23 11 0 6 -4 10 -10 10 -5 0 -10 -3 -10 -7z"/>
<path d="M2025 1820 c-8 -13 4 -32 16 -25 5 4 9 1 9 -4 0 -6 -7 -11 -15 -11
-8 0 -15 -6 -15 -12 0 -8 -3 -9 -8 -3 -4 6 -11 11 -17 11 -5 1 -22 4 -37 8
-35 8 -36 -7 -2 -23 21 -9 24 -14 14 -26 -10 -12 -9 -15 4 -15 9 0 16 5 16 10
0 6 6 10 14 10 8 0 22 8 32 18 12 12 32 17 66 15 26 0 48 3 48 8 0 5 -9 9 -20
9 -11 0 -20 5 -20 11 0 5 -4 7 -10 4 -5 -3 -10 -1 -10 5 0 6 10 8 24 4 13 -3
27 -1 30 5 4 6 -6 9 -24 9 -17 -1 -34 -8 -39 -16 -5 -9 -15 -12 -30 -7 -12 3
-19 11 -16 16 4 5 4 9 1 9 -3 0 -8 -4 -11 -10z"/>
<path d="M0 1805 c0 -8 5 -15 10 -15 6 0 10 7 10 15 0 8 -4 15 -10 15 -5 0
-10 -7 -10 -15z"/>
<path d="M974 1793 c2 -15 7 -27 12 -25 13 3 10 45 -3 49 -8 3 -11 -6 -9 -24z"/>
<path d="M560 1799 c0 -6 -7 -9 -15 -6 -8 4 -17 2 -20 -2 -2 -5 4 -11 15 -14
11 -3 20 -1 20 3 0 5 12 13 28 18 l27 10 -27 1 c-16 1 -28 -4 -28 -10z"/>
<path d="M1870 1795 c0 -8 -8 -15 -17 -16 -15 0 -15 -2 2 -9 16 -7 17 -9 3 -9
-17 -1 -19 -35 -4 -60 4 -6 2 -19 -6 -28 -11 -14 -11 -16 1 -8 11 6 13 4 8 -8
-4 -11 -1 -17 9 -17 9 0 14 -7 12 -17 -2 -11 -11 -17 -23 -15 -20 2 -20 2 -1
-9 14 -9 21 -9 24 -1 2 7 12 8 34 0 23 -8 32 -8 38 2 4 7 9 8 11 2 2 -5 13 -6
24 -2 19 7 19 8 -5 18 -19 8 -28 7 -36 -4 -10 -13 -12 -13 -17 1 -4 8 -13 12
-22 9 -10 -4 -15 0 -15 14 0 12 -4 24 -10 27 -5 3 -10 14 -10 23 0 13 2 13 15
-4 13 -17 13 -15 4 20 -6 22 -9 55 -6 73 3 18 2 33 -4 33 -5 0 -9 -7 -9 -15z
m-3 -77 c-3 -8 -6 -5 -6 6 -1 11 2 17 5 13 3 -3 4 -12 1 -19z"/>
<path d="M1966 1801 c-3 -4 4 -7 14 -8 11 -1 22 2 24 6 3 4 -4 7 -14 8 -11 1
-22 -2 -24 -6z"/>
<path d="M2240 1786 c0 -13 -6 -27 -12 -29 -8 -3 -6 -6 5 -6 12 -1 17 7 17 29
0 17 -2 30 -5 30 -3 0 -5 -11 -5 -24z"/>
<path d="M2266 1801 c-4 -7 -5 -15 -2 -18 9 -9 19 4 14 18 -4 11 -6 11 -12 0z"/>
<path d="M477 1778 c-8 -29 -4 -32 11 -8 6 10 8 21 3 24 -5 3 -11 -4 -14 -16z"/>
<path d="M2312 1775 c0 -16 2 -22 5 -12 2 9 2 23 0 30 -3 6 -5 -1 -5 -18z"/>
<path d="M848 1778 c18 -18 14 -30 -8 -23 -32 10 -23 -10 13 -28 23 -13 25
-16 10 -13 -13 2 -23 0 -23 -5 0 -16 -29 -10 -40 9 -11 16 -11 16 -6 -2 6 -18
5 -18 -18 -2 -30 19 -81 22 -70 4 5 -7 9 -21 9 -30 1 -13 -3 -17 -17 -12 -13
4 -16 1 -12 -9 3 -9 -1 -17 -10 -19 -35 -7 3 -28 57 -30 l57 -3 -7 -35 c-5
-30 -4 -33 9 -20 20 21 29 48 16 52 -6 2 -8 10 -4 16 11 19 26 14 26 -8 0 -12
9 -22 23 -25 30 -8 54 -61 39 -86 -9 -15 -6 -19 20 -28 24 -8 34 -8 39 0 5 8
15 3 33 -16 14 -15 26 -32 26 -37 0 -5 5 -6 11 -2 7 4 10 1 7 -7 -3 -8 -14
-14 -25 -14 -11 -1 -28 -8 -37 -18 -18 -17 -14 -37 7 -37 7 0 21 -11 31 -25
23 -30 32 -31 45 -6 8 14 7 20 -5 25 -8 3 -12 2 -9 -4 3 -6 1 -10 -4 -10 -6 0
-11 7 -11 15 0 8 4 15 9 15 5 0 8 8 6 18 -1 9 2 22 6 28 13 16 2 40 -26 52
-24 11 -32 52 -10 52 13 0 51 -42 47 -52 -1 -5 2 -8 7 -8 5 0 11 -14 15 -31 4
-23 2 -35 -10 -43 -14 -11 -14 -13 0 -25 8 -7 20 -10 26 -6 5 3 10 1 10 -5 0
-6 5 -8 11 -4 8 5 8 9 -1 14 -21 13 -22 71 -2 86 16 12 15 13 -8 14 -14 1 -19
4 -12 7 6 2 12 9 12 15 0 5 -6 8 -12 5 -7 -2 -24 9 -38 25 -25 29 -26 29 -64
13 -21 -9 -43 -14 -49 -11 -7 2 -3 5 8 6 17 2 16 3 -5 9 -21 6 -25 13 -22 39
1 18 -1 31 -5 30 -11 -3 -53 25 -53 35 0 4 5 5 10 2 6 -3 10 -1 10 6 0 6 -8 9
-19 6 -12 -3 -22 1 -25 9 -6 16 -37 14 -59 -4 -10 -9 -22 -10 -40 -3 -18 7
-27 7 -31 -2 -2 -7 -5 -4 -5 6 -1 14 4 17 22 13 12 -3 16 -3 10 0 -9 4 -10 11
-3 24 10 19 40 35 40 20 0 -5 -8 -11 -17 -13 -17 -4 -17 -5 0 -6 11 -1 15 -6
11 -13 -4 -7 -3 -8 5 -4 6 4 9 12 6 17 -11 17 32 9 58 -11 28 -22 37 -25 37
-10 0 6 -6 10 -14 10 -8 0 -18 5 -22 11 -4 8 4 9 27 4 23 -4 29 -3 20 3 -11 8
-9 11 10 17 l24 8 -22 8 c-15 5 -21 14 -17 24 7 17 -12 45 -29 45 -7 0 -7 -4
1 -12z m162 -403 c0 -8 -4 -15 -10 -15 -5 0 -7 7 -4 15 4 8 8 15 10 15 2 0 4
-7 4 -15z m80 -15 c0 -5 -2 -10 -4 -10 -3 0 -8 5 -11 10 -3 6 -1 10 4 10 6 0
11 -4 11 -10z"/>
<path d="M22 1771 c-20 -12 22 -39 52 -34 22 5 26 2 26 -18 1 -23 1 -24 16 -4
14 18 12 20 -22 32 -20 7 -42 17 -48 22 -7 6 -17 7 -24 2z"/>
<path d="M1900 1764 c0 -8 5 -12 10 -9 6 4 8 11 5 16 -9 14 -15 11 -15 -7z"/>
<path d="M2560 1760 c0 -5 5 -10 11 -10 5 0 7 5 4 10 -3 6 -8 10 -11 10 -2 0
-4 -4 -4 -10z"/>
<path d="M1015 1740 c-3 -5 -1 -10 4 -10 6 0 11 5 11 10 0 6 -2 10 -4 10 -3 0
-8 -4 -11 -10z"/>
<path d="M1929 1748 c0 -2 -2 -10 -4 -18 -2 -8 -7 -24 -11 -35 -7 -18 -6 -18
7 -5 18 18 31 60 18 60 -5 0 -9 -1 -10 -2z"/>
<path d="M2705 1740 c3 -5 8 -10 11 -10 2 0 4 5 4 10 0 6 -5 10 -11 10 -5 0
-7 -4 -4 -10z"/>
<path d="M915 1730 c28 -12 75 -12 75 0 0 6 -21 10 -47 9 -36 0 -43 -3 -28 -9z"/>
<path d="M135 1701 c-9 -18 -11 -31 -5 -31 11 0 34 50 26 57 -2 3 -12 -9 -21
-26z"/>
<path d="M640 1720 c0 -5 5 -10 10 -10 6 0 10 5 10 10 0 6 -4 10 -10 10 -5 0
-10 -4 -10 -10z"/>
<path d="M2045 1710 c-3 -5 3 -10 14 -10 12 0 21 -5 21 -11 0 -5 5 -7 10 -4 8
5 7 11 -1 21 -13 16 -35 18 -44 4z"/>
<path d="M157 1691 c-7 -27 5 -42 21 -25 8 9 9 14 2 14 -6 0 -8 5 -5 10 4 6
11 8 16 5 5 -4 9 -1 9 4 0 19 -37 12 -43 -8z"/>
<path d="M946 1703 c6 -4 14 -15 17 -23 5 -11 6 -9 4 4 -1 11 -9 21 -17 23
-10 3 -11 2 -4 -4z"/>
<path d="M1025 1700 c3 -5 8 -10 11 -10 2 0 4 5 4 10 0 6 -5 10 -11 10 -5 0
-7 -4 -4 -10z"/>
<path d="M1997 1699 c7 -7 15 -10 18 -7 3 3 -2 9 -12 12 -14 6 -15 5 -6 -5z"/>
<path d="M2140 1700 c0 -5 9 -10 19 -10 11 0 23 5 26 10 4 6 -5 10 -19 10 -14
0 -26 -4 -26 -10z"/>
<path d="M2220 1699 c0 -5 5 -7 10 -4 6 3 10 8 10 11 0 2 -4 4 -10 4 -5 0 -10
-5 -10 -11z"/>
<path d="M75 1691 c-3 -5 -1 -12 5 -16 5 -3 10 1 10 9 0 18 -6 21 -15 7z"/>
<path d="M25 1680 c19 -8 18 -9 -4 -9 -13 -1 -22 -4 -18 -7 3 -4 18 -3 34 0
21 6 24 9 12 17 -7 5 -21 8 -29 8 -10 0 -8 -3 5 -9z"/>
<path d="M273 1681 c-23 -4 -49 -6 -58 -5 -8 1 -15 -1 -15 -6 0 -12 47 -18 62
-9 7 5 23 9 36 9 12 0 22 5 22 10 0 6 -1 9 -2 9 -2 -1 -22 -5 -45 -8z"/>
<path d="M1943 1676 c0 -8 6 -12 14 -9 7 3 10 9 7 14 -8 14 -21 11 -21 -5z"/>
<path d="M2246 1675 c-8 -8 -27 -20 -43 -27 l-28 -12 34 -4 c19 -2 44 -10 55
-18 27 -18 56 -18 56 1 0 9 -6 12 -17 8 -12 -5 -15 -2 -10 10 7 20 -4 22 -21
5 -9 -9 -15 -9 -23 -1 -15 15 -3 33 22 33 11 0 17 5 14 10 -9 14 -21 12 -39
-5z"/>
<path d="M2388 1673 c12 -2 32 -2 45 0 12 2 2 4 -23 4 -25 0 -35 -2 -22 -4z"/>
<path d="M348 1663 c7 -3 16 -2 19 1 4 3 -2 6 -13 5 -11 0 -14 -3 -6 -6z"/>
<path d="M2155 1660 c3 -5 8 -10 11 -10 2 0 4 5 4 10 0 6 -5 10 -11 10 -5 0
-7 -4 -4 -10z"/>
<path d="M525 1642 c-11 -11 -4 -21 15 -19 23 1 28 24 5 24 -8 0 -17 -3 -20
-5z"/>
<path d="M60 1600 c0 -5 9 -10 21 -10 11 0 17 5 14 10 -3 6 -13 10 -21 10 -8
0 -14 -4 -14 -10z"/>
<path d="M168 1593 c6 -2 18 -2 25 0 6 3 1 5 -13 5 -14 0 -19 -2 -12 -5z"/>
<path d="M266 1584 c-3 -8 -1 -14 3 -14 5 0 11 6 14 13 3 9 7 9 20 -2 10 -8
17 -9 17 -3 0 6 8 12 18 14 9 3 -2 5 -25 5 -27 0 -44 -5 -47 -13z"/>
<path d="M760 1585 c0 -8 2 -15 4 -15 2 0 6 7 10 15 3 8 1 15 -4 15 -6 0 -10
-7 -10 -15z"/>
<path d="M2118 1593 c22 -4 23 -5 5 -18 -19 -15 -7 -20 21 -9 30 11 18 34 -16
33 -25 -1 -28 -3 -10 -6z"/>
<path d="M2480 1583 c0 -10 4 -14 8 -8 4 6 11 13 16 18 5 4 2 7 -7 7 -10 0
-17 -8 -17 -17z"/>
<path d="M2588 1593 c7 -3 16 -2 19 1 4 3 -2 6 -13 5 -11 0 -14 -3 -6 -6z"/>
<path d="M2683 1593 c9 -2 23 -2 30 0 6 3 -1 5 -18 5 -16 0 -22 -2 -12 -5z"/>
<path d="M410 1580 c0 -5 7 -10 15 -10 8 0 15 5 15 10 0 6 -7 10 -15 10 -8 0
-15 -4 -15 -10z"/>
<path d="M1950 1583 c0 -2 5 -12 12 -22 14 -23 4 -53 -17 -45 -8 3 -15 1 -15
-6 0 -6 5 -8 10 -5 6 3 10 1 10 -4 0 -6 -4 -11 -10 -11 -5 0 -7 -7 -4 -15 9
-23 -6 -18 -34 13 -15 17 -22 20 -19 10 5 -14 1 -18 -17 -18 -14 0 -33 -3 -43
-7 -15 -6 -16 -4 -5 9 7 9 21 14 32 11 11 -3 20 -1 20 4 0 11 -42 9 -59 -2 -6
-3 -11 -14 -11 -23 0 -12 -3 -13 -8 -5 -4 7 -21 10 -39 8 -26 -3 -31 -1 -27
13 4 12 3 13 -3 4 -6 -7 -18 -10 -29 -6 -15 5 -16 4 -4 -5 8 -5 11 -13 7 -18
-5 -4 -17 3 -27 17 -15 20 -21 23 -31 13 -11 -11 -10 -13 3 -13 9 0 19 -7 22
-16 11 -28 6 -36 -10 -20 -8 9 -19 16 -23 16 -4 0 -12 12 -18 28 -11 26 -11
26 -7 2 3 -17 -1 -31 -13 -42 -18 -16 -76 -31 -68 -18 6 10 -58 20 -131 20
-67 0 -94 -14 -117 -60 -7 -14 -19 -25 -27 -26 -36 -2 -41 -5 -34 -16 4 -7 3
-8 -5 -4 -6 4 -17 3 -24 -2 -7 -6 -24 -12 -37 -14 -14 -2 -31 -8 -39 -13 -10
-5 -16 -4 -19 3 -2 7 -10 12 -18 12 -9 0 -13 -4 -10 -9 3 -5 -1 -11 -9 -15
-25 -9 -17 -24 10 -19 13 3 37 1 53 -5 26 -9 29 -8 25 8 -5 19 28 37 47 25 5
-3 18 3 30 15 24 24 42 26 34 5 -4 -8 -2 -15 4 -15 10 0 42 60 42 79 0 6 10
15 23 20 27 10 169 7 188 -5 17 -10 99 -12 105 -2 3 4 -2 8 -10 8 -14 0 -14 3
-4 20 9 13 14 16 17 8 12 -36 45 -40 67 -9 8 10 32 15 80 17 38 1 84 5 102 8
25 6 32 4 32 -8 0 -9 -7 -17 -15 -17 -8 -1 -24 -3 -35 -4 -11 -1 -24 -3 -30
-4 -5 0 -10 -13 -10 -27 0 -16 4 -23 12 -18 7 4 8 3 4 -5 -5 -7 -20 -10 -34
-8 -15 2 -21 2 -14 0 8 -3 11 -11 8 -18 -3 -8 3 -12 19 -11 13 0 21 4 18 9 -5
9 11 9 20 0 4 -3 2 -12 -4 -19 -7 -8 -6 -14 2 -20 8 -5 9 -3 4 6 -5 8 -4 11 3
6 6 -4 9 -13 5 -21 -3 -8 0 -15 6 -15 6 0 11 -7 11 -15 0 -8 -4 -15 -9 -15
-18 0 -20 -30 -3 -46 12 -13 13 -19 4 -22 -6 -2 -12 -9 -12 -15 0 -7 -11 -12
-25 -12 -14 0 -25 3 -25 8 0 4 -5 7 -11 7 -6 0 -9 -7 -6 -15 4 -8 1 -17 -4
-21 -6 -3 -9 -15 -6 -25 5 -20 -25 -45 -63 -51 -13 -1 -26 -9 -28 -17 -4 -11
0 -12 14 -6 11 4 27 7 37 7 9 0 17 3 17 8 0 5 9 12 20 15 11 3 20 12 20 20 0
7 3 15 8 18 4 2 0 2 -8 0 -9 -3 -7 4 7 16 25 23 43 27 43 9 0 -7 11 3 25 21
16 23 22 39 16 50 -5 9 -6 22 -3 30 3 9 0 11 -9 6 -12 -7 -12 -6 0 6 10 11 15
11 18 2 3 -7 9 -13 15 -13 6 0 4 8 -5 18 -19 21 -13 34 11 24 15 -5 15 -4 3
12 -13 15 -13 19 0 27 12 9 12 12 -2 21 -15 11 -15 15 4 52 11 23 27 49 35 58
8 9 11 21 8 27 -4 5 -2 12 4 16 5 3 10 1 10 -5 0 -8 6 -8 20 0 17 9 18 14 9
31 -8 15 -8 24 0 32 6 6 11 18 11 27 0 13 -1 13 -10 0 -5 -8 -10 -10 -10 -5 0
6 -9 11 -20 11 -11 0 -20 -2 -20 -3z m-50 -175 c0 -6 -7 -8 -15 -5 -8 4 -17 2
-20 -3 -7 -11 12 -51 29 -62 6 -4 0 -8 -13 -8 -13 0 -22 3 -19 6 4 3 0 17 -8
32 -10 20 -11 28 -1 34 9 6 8 8 -3 9 -10 0 -8 3 5 8 23 9 45 4 45 -11z"/>
<path d="M2030 1575 c0 -8 4 -15 10 -15 5 0 7 7 4 15 -4 8 -8 15 -10 15 -2 0
-4 -7 -4 -15z"/>
<path d="M1925 1570 c3 -5 8 -10 11 -10 2 0 4 5 4 10 0 6 -5 10 -11 10 -5 0
-7 -4 -4 -10z"/>
<path d="M2715 1559 c-11 -16 4 -59 20 -59 8 0 15 5 15 10 0 6 -7 10 -15 10
-21 0 -19 38 3 43 15 4 15 5 0 6 -9 0 -20 -4 -23 -10z"/>
<path d="M325 1550 c3 -5 8 -10 11 -10 2 0 4 5 4 10 0 6 -5 10 -11 10 -5 0 -7
-4 -4 -10z"/>
<path d="M280 1542 c0 -15 11 -21 27 -15 12 5 12 7 1 14 -17 11 -28 11 -28 1z"/>
<path d="M746 1535 c-9 -26 -7 -32 5 -12 6 10 9 21 6 23 -2 3 -7 -2 -11 -11z"/>
<path d="M930 1540 c0 -6 7 -10 15 -10 8 0 15 2 15 4 0 2 -7 6 -15 10 -8 3
-15 1 -15 -4z"/>
<path d="M985 1540 c3 -5 12 -7 20 -3 21 7 19 13 -6 13 -11 0 -18 -4 -14 -10z"/>
<path d="M2080 1536 c0 -9 5 -16 10 -16 6 0 10 4 10 9 0 6 -4 13 -10 16 -5 3
-10 -1 -10 -9z"/>
<path d="M2358 1543 c7 -3 16 -2 19 1 4 3 -2 6 -13 5 -11 0 -14 -3 -6 -6z"/>
<path d="M811 1524 c0 -11 3 -14 6 -6 3 7 2 16 -1 19 -3 4 -6 -2 -5 -13z"/>
<path d="M125 1521 c-2 -5 4 -11 15 -14 11 -3 20 -2 20 3 0 12 -28 21 -35 11z"/>
<path d="M398 1522 c-15 -6 -15 -9 1 -29 l18 -22 11 24 c15 32 5 41 -30 27z"/>
<path d="M2065 1510 c-3 -5 -12 -7 -19 -4 -7 3 -26 -7 -42 -21 -28 -25 -28
-26 -5 -19 16 4 21 3 17 -5 -4 -7 1 -11 13 -11 23 0 29 25 9 34 -7 4 -2 4 10
2 27 -5 52 2 52 14 0 12 -29 20 -35 10z"/>
<path d="M70 1498 c0 -4 7 -8 15 -8 8 0 15 4 15 8 0 5 -7 9 -15 9 -8 0 -15 -4
-15 -9z"/>
<path d="M273 1493 c-26 -17 -31 -38 -8 -29 9 3 15 0 15 -9 0 -7 4 -17 10 -20
6 -4 9 10 7 34 -1 23 -2 41 -2 40 0 0 -10 -7 -22 -16z"/>
<path d="M588 1503 c7 -3 16 -2 19 1 4 3 -2 6 -13 5 -11 0 -14 -3 -6 -6z"/>
<path d="M2141 1494 c0 -11 3 -14 6 -6 3 7 2 16 -1 19 -3 4 -6 -2 -5 -13z"/>
<path d="M2318 1503 c7 -3 16 -2 19 1 4 3 -2 6 -13 5 -11 0 -14 -3 -6 -6z"/>
<path d="M344 1481 c0 -11 5 -17 13 -14 10 4 11 9 2 19 -15 18 -15 18 -15 -5z"/>
<path d="M2640 1479 c0 -5 5 -7 10 -4 6 3 10 1 10 -5 0 -6 -22 -10 -57 -9 -80
2 -83 1 -83 -16 0 -8 9 -15 20 -15 11 0 20 5 20 10 0 6 9 10 20 10 11 0 20 -4
20 -8 0 -4 9 -8 20 -8 11 0 20 4 20 8 0 4 5 8 11 8 5 0 7 -4 4 -10 -3 -5 -1
-10 4 -10 6 0 11 3 12 8 0 4 2 17 3 30 2 16 -3 22 -16 22 -10 0 -18 -5 -18
-11z"/>
<path d="M145 1470 c3 -5 8 -10 11 -10 2 0 4 5 4 10 0 6 -5 10 -11 10 -5 0 -7
-4 -4 -10z"/>
<path d="M2260 1455 c0 -8 4 -15 10 -15 5 0 7 7 4 15 -4 8 -8 15 -10 15 -2 0
-4 -7 -4 -15z"/>
<path d="M0 1440 c0 -19 3 -21 12 -12 9 9 9 15 0 24 -9 9 -12 7 -12 -12z"/>
<path d="M45 1450 c3 -5 10 -10 16 -10 5 0 9 5 9 10 0 6 -7 10 -16 10 -8 0
-12 -4 -9 -10z"/>
<path d="M88 1448 c9 -9 15 -9 24 0 9 9 7 12 -12 12 -19 0 -21 -3 -12 -12z"/>
<path d="M745 1451 c-3 -5 -1 -12 5 -16 12 -7 30 2 30 16 0 12 -27 12 -35 0z"/>
<path d="M320 1440 c8 -5 13 -10 10 -11 -42 -7 -114 -38 -107 -46 3 -3 29 1
57 8 46 12 54 11 64 -2 21 -29 64 -51 81 -42 15 9 15 11 1 22 -11 9 -16 10
-16 2 0 -6 -5 -11 -10 -11 -7 0 -7 6 -1 19 9 16 8 18 -9 14 -21 -6 -55 21 -46
36 3 5 -1 12 -10 15 -24 9 -31 7 -14 -4z"/>
<path d="M374 1434 c-16 -13 -16 -15 -1 -10 9 3 17 1 17 -5 0 -6 7 -9 15 -5 8
3 15 0 15 -6 0 -7 4 -7 14 1 10 8 16 9 21 1 3 -5 1 -10 -4 -10 -6 0 -11 -7
-11 -15 0 -18 7 -19 24 -2 7 7 11 18 8 26 -3 9 2 11 19 7 l24 -6 -22 11 c-13
7 -23 17 -23 23 0 6 -5 4 -10 -4 -9 -13 -11 -13 -20 0 -9 13 -11 13 -20 0 -6
-10 -10 -11 -10 -2 0 16 -12 15 -36 -4z"/>
<path d="M560 1431 c0 -7 -5 -9 -12 -5 -9 5 -9 3 1 -9 7 -9 16 -15 20 -12 4 2
19 -2 34 -10 20 -10 27 -11 27 -2 0 21 -17 40 -29 32 -7 -4 -18 -1 -26 5 -11
10 -15 10 -15 1z"/>
<path d="M656 1424 c-9 -8 -16 -24 -16 -34 0 -10 -8 -27 -17 -36 -17 -17 -17
-18 0 -11 9 3 17 2 17 -4 0 -6 5 -7 11 -3 8 5 8 8 0 14 -15 9 -4 38 18 45 9 3
17 14 17 25 0 24 -9 25 -30 4z"/>
<path d="M891 1424 c0 -11 3 -14 6 -6 3 7 2 16 -1 19 -3 4 -6 -2 -5 -13z"/>
<path d="M36 1418 c3 -5 -3 -12 -15 -15 -12 -3 -21 -12 -21 -21 0 -13 2 -13
18 1 20 18 47 23 37 7 -9 -15 11 -12 23 3 9 10 4 16 -19 24 -17 7 -27 7 -23 1z"/>
<path d="M220 1426 c0 -2 7 -7 16 -10 8 -3 12 -2 9 4 -6 10 -25 14 -25 6z"/>
<path d="M700 1425 c0 -8 55 -55 65 -55 5 0 4 4 -4 9 -7 5 -9 11 -5 14 9 5 54
-26 54 -38 0 -3 -10 -3 -22 0 -23 7 -23 7 -3 -8 13 -10 22 -12 26 -5 10 16 34
4 34 -18 0 -13 6 -18 18 -16 9 2 17 -2 17 -9 0 -9 3 -9 14 0 12 10 12 16 -2
42 -9 16 -21 29 -26 29 -5 0 -3 -7 4 -15 7 -9 10 -18 7 -21 -8 -8 -47 28 -41
38 3 4 -7 8 -23 9 -15 0 -22 3 -15 6 24 10 11 23 -23 23 -19 0 -35 5 -35 10 0
6 -9 10 -20 10 -11 0 -20 -2 -20 -5z"/>
<path d="M845 1420 c-3 -5 -2 -10 4 -10 5 0 13 5 16 10 3 6 2 10 -4 10 -5 0
-13 -4 -16 -10z"/>
<path d="M1780 1415 c-11 -13 -10 -14 4 -9 9 3 16 10 16 15 0 13 -6 11 -20 -6z"/>
<path d="M2000 1422 c0 -7 -6 -11 -12 -9 -8 1 -14 -10 -15 -28 -2 -29 -2 -29
7 -5 4 14 9 21 9 15 1 -5 6 -2 12 8 6 10 8 21 5 24 -3 4 -6 1 -6 -5z"/>
<path d="M2160 1406 c0 -18 -7 -26 -22 -29 -20 -4 -19 -4 5 -6 18 -1 27 4 27
14 0 10 10 15 30 15 22 0 28 4 24 15 -4 9 -19 15 -35 15 -24 0 -29 -4 -29 -24z
m37 8 c-3 -3 -12 -4 -19 -1 -8 3 -5 6 6 6 11 1 17 -2 13 -5z"/>
<path d="M2240 1419 c0 -5 5 -7 10 -4 6 3 10 8 10 11 0 2 -4 4 -10 4 -5 0 -10
-5 -10 -11z"/>
<path d="M115 1410 c-3 -5 -1 -11 5 -15 12 -7 50 3 50 13 0 10 -49 11 -55 2z"/>
<path d="M1710 1416 c0 -2 7 -7 16 -10 8 -3 12 -2 9 4 -6 10 -25 14 -25 6z"/>
<path d="M185 1400 c-3 -5 1 -10 9 -10 9 0 16 5 16 10 0 6 -4 10 -9 10 -6 0
-13 -4 -16 -10z"/>
<path d="M1438 1403 c6 -2 10 -8 7 -13 -3 -4 4 -6 14 -3 11 3 28 0 38 -7 16
-10 15 -11 -9 -7 -16 2 -28 0 -28 -4 0 -5 3 -9 8 -10 4 0 16 -2 28 -3 34 -4
27 31 -8 43 -31 11 -76 15 -50 4z"/>
<path d="M1683 1395 c6 -13 3 -15 -13 -10 -23 7 -26 0 -8 -19 14 -15 44 -10
51 8 3 7 -4 18 -15 25 -18 11 -20 11 -15 -4z"/>
<path d="M2080 1390 c0 -11 4 -20 9 -20 5 0 7 9 4 20 -3 11 -7 20 -9 20 -2 0
-4 -9 -4 -20z"/>
<path d="M520 1390 c0 -5 -6 -10 -14 -10 -8 0 -23 -11 -34 -25 -11 -14 -29
-25 -41 -25 -12 0 -21 -4 -21 -10 0 -5 -7 -7 -15 -4 -10 4 -15 0 -15 -11 0 -9
4 -14 9 -10 6 3 9 -4 8 -15 -2 -25 -13 -26 -26 -2 -6 9 -11 12 -11 5 0 -6 -2
-18 -5 -25 -4 -10 3 -14 22 -13 21 0 29 6 33 25 4 18 14 26 33 28 15 2 27 8
27 13 0 6 5 7 11 3 8 -4 8 -1 1 13 -9 17 -6 18 33 18 24 0 41 3 38 8 -2 4 -14
7 -25 7 -20 0 -21 1 -3 20 10 11 13 20 7 20 -7 0 -12 -4 -12 -10z"/>
<path d="M295 1380 c-13 -6 -15 -9 -5 -9 13 -1 13 -2 0 -11 -10 -7 -11 -10 -2
-10 7 0 15 7 18 15 4 8 11 12 17 8 6 -3 7 -1 3 5 -4 7 -8 12 -9 11 -1 0 -11
-4 -22 -9z"/>
<path d="M568 1383 c-14 -3 -15 -7 -6 -17 10 -11 15 -11 25 0 23 22 18 27 -19
17z"/>
<path d="M2713 1375 c-6 -7 -9 -16 -6 -19 4 -3 1 -6 -6 -6 -9 0 -8 -5 3 -15
16 -17 31 -20 31 -7 0 4 4 13 9 21 7 11 5 13 -7 8 -10 -3 -17 -2 -17 3 0 5 8
10 18 12 14 3 14 5 2 10 -8 3 -20 0 -27 -7z"/>
<path d="M160 1376 c0 -2 6 -14 13 -28 12 -23 47 -28 47 -6 0 5 7 8 15 4 8 -3
15 -1 15 4 0 6 -9 10 -20 10 -11 0 -20 -4 -20 -10 0 -5 -5 -10 -11 -10 -5 0
-7 5 -4 10 3 6 -1 10 -10 10 -9 0 -13 5 -10 10 3 6 1 10 -4 10 -6 0 -11 -2
-11 -4z"/>
<path d="M2198 1373 c7 -3 16 -2 19 1 4 3 -2 6 -13 5 -11 0 -14 -3 -6 -6z"/>
<path d="M2649 1372 c-1 -4 -1 -10 0 -14 0 -4 -14 -19 -32 -34 l-32 -27 27 5
c19 4 25 1 21 -8 -6 -16 -54 -15 -65 1 -5 6 -8 5 -8 -4 0 -10 -3 -11 -14 -2
-16 13 -32 -1 -21 -19 9 -15 -35 -22 -117 -18 -59 3 -75 1 -71 -9 3 -7 15 -13
27 -13 11 -1 55 -2 98 -3 42 -1 74 2 71 6 -3 5 2 16 11 26 22 24 82 16 98 -12
11 -20 10 -21 -13 -6 -13 9 -34 18 -46 21 -18 5 -23 1 -28 -24 -5 -22 -2 -35
14 -52 17 -18 20 -30 15 -57 -6 -32 -6 -33 9 -14 9 11 17 24 17 29 0 4 11 21
25 38 14 16 25 35 25 43 0 7 14 18 30 25 35 15 42 50 10 50 -14 0 -20 -6 -18
-17 2 -10 -3 -17 -9 -15 -7 1 -13 -4 -13 -10 0 -9 -4 -8 -10 2 -12 18 -13 30
-2 29 17 -3 26 2 15 9 -15 10 -21 48 -6 45 17 -3 24 24 7 31 -8 3 -15 2 -15
-2z m-25 -148 c8 -22 -1 -34 -27 -34 -16 0 -22 6 -23 25 -2 20 3 25 21 25 13
0 26 -7 29 -16z"/>
<path d="M98 1363 c7 -3 16 -2 19 1 4 3 -2 6 -13 5 -11 0 -14 -3 -6 -6z"/>
<path d="M1422 1353 c4 -20 48 -38 48 -20 0 7 -12 17 -26 24 -21 10 -25 9 -22
-4z"/>
<path d="M1573 1357 c-3 -5 -1 -12 4 -16 12 -7 27 -65 16 -58 -4 2 -26 13 -48
23 -22 10 -43 22 -46 27 -4 5 -9 5 -13 -1 -4 -6 1 -17 9 -24 9 -7 21 -18 28
-24 6 -6 21 -9 32 -7 16 4 17 3 5 -6 -19 -13 -9 -14 24 -1 16 6 27 6 31 0 4
-6 13 -10 20 -10 10 0 7 10 -11 37 -14 21 -23 45 -21 54 5 17 -20 22 -30 6z"/>
<path d="M2010 1360 c0 -5 9 -10 21 -10 11 0 17 5 14 10 -3 6 -13 10 -21 10
-8 0 -14 -4 -14 -10z"/>
<path d="M2540 1360 c0 -5 5 -10 10 -10 6 0 10 5 10 10 0 6 -4 10 -10 10 -5 0
-10 -4 -10 -10z"/>
<path d="M20 1350 c-9 -6 -10 -10 -3 -10 6 0 15 5 18 10 8 12 4 12 -15 0z"/>
<path d="M1334 1351 c14 -5 16 -10 8 -15 -7 -4 -12 -4 -12 1 0 4 -5 1 -10 -7
-14 -21 -12 -62 4 -82 14 -20 28 -14 19 8 -3 8 0 14 7 14 6 0 8 5 5 10 -4 6
-10 8 -15 5 -4 -3 -11 2 -14 11 -5 13 -1 15 17 12 20 -4 23 -1 19 16 -4 17 -2
19 9 9 7 -7 22 -13 34 -12 19 0 19 1 -3 16 -13 9 -38 18 -55 19 -23 2 -27 1
-13 -5z"/>
<path d="M2400 1356 c0 -9 40 -13 46 -5 3 5 -6 9 -20 9 -14 0 -26 -2 -26 -4z"/>
<path d="M67 1343 c-12 -11 -8 -23 7 -23 8 0 16 -7 20 -15 7 -20 45 -19 53 0
5 16 -27 49 -37 38 -3 -3 1 -8 8 -10 17 -7 15 -23 -4 -23 -9 0 -18 9 -21 20
-5 21 -15 25 -26 13z"/>
<path d="M280 1337 c-14 -6 -28 -16 -32 -22 -5 -6 -8 -6 -8 2 0 8 -9 7 -31 -4
-26 -13 -33 -13 -40 -2 -6 10 -9 10 -9 2 0 -19 35 -34 48 -21 18 18 32 4 16
-17 -14 -19 -16 -19 -44 -3 -30 17 -39 8 -21 -20 11 -17 77 -6 85 15 3 8 11
11 18 7 8 -5 9 0 6 14 -4 14 -2 22 7 22 7 0 15 5 17 11 2 6 16 12 31 12 15 0
27 3 27 8 0 12 -40 10 -70 -4z"/>
<path d="M2347 1329 c6 -23 9 -24 16 -5 3 8 0 17 -7 19 -10 4 -12 -1 -9 -14z"/>
<path d="M2563 1340 c-23 -9 -32 -30 -13 -30 6 0 10 5 10 10 0 6 7 10 15 10 8
0 15 5 15 10 0 6 -1 10 -2 9 -2 0 -13 -4 -25 -9z"/>
<path d="M2500 1320 c19 -13 30 -13 30 0 0 6 -10 10 -22 10 -19 0 -20 -2 -8
-10z"/>
<path d="M1762 1311 c2 -8 13 -19 24 -25 10 -6 22 -15 26 -21 4 -5 10 -6 14
-3 8 8 -15 32 -36 36 -8 2 -19 9 -23 15 -6 8 -7 8 -5 -2z"/>
<path d="M2241 1304 c0 -11 3 -14 6 -6 3 7 2 16 -1 19 -3 4 -6 -2 -5 -13z"/>
<path d="M35 1300 c-3 -5 4 -15 17 -21 39 -17 32 -43 -15 -61 -36 -14 -38 -17
-16 -17 15 -1 43 12 64 29 21 17 42 30 47 30 5 0 6 5 3 11 -5 7 -13 5 -24 -5
-20 -18 -35 -21 -26 -5 4 6 -2 19 -14 30 -23 22 -27 23 -36 9z"/>
<path d="M309 1299 c-11 -7 -11 -9 -1 -9 7 0 10 -4 7 -10 -3 -5 -14 -10 -24
-10 -9 0 -26 -8 -37 -18 -11 -11 -26 -22 -34 -26 -9 -3 -6 -4 7 -2 12 2 24 -2
27 -10 6 -16 36 -19 36 -4 0 6 -4 10 -10 10 -5 0 -10 7 -10 16 0 10 6 14 15
10 8 -3 15 -1 15 4 0 5 9 11 19 15 11 3 22 12 24 20 7 17 -15 26 -34 14z"/>
<path d="M1451 1296 c-15 -18 -6 -36 17 -35 15 1 15 2 0 6 -10 2 -18 9 -18 15
0 5 6 8 13 5 31 -13 52 -20 47 -16 -48 41 -47 40 -59 25z"/>
<path d="M2305 1300 c3 -5 8 -10 11 -10 2 0 4 5 4 10 0 6 -5 10 -11 10 -5 0
-7 -4 -4 -10z"/>
<path d="M959 1293 c-1 -5 -1 -11 0 -15 0 -5 -6 -8 -14 -8 -8 0 -15 -4 -15
-10 0 -15 19 -12 36 5 9 9 11 15 4 15 -6 0 -8 5 -5 10 3 6 4 10 1 10 -3 0 -7
-3 -7 -7z"/>
<path d="M1380 1290 c0 -5 7 -10 16 -10 8 0 12 5 9 10 -3 6 -10 10 -16 10 -5
0 -9 -4 -9 -10z"/>
<path d="M2470 1293 c-8 -3 -22 -7 -30 -10 -8 -3 -26 -7 -39 -9 -47 -6 -30
-12 39 -12 51 0 70 3 70 13 0 15 -19 24 -40 18z"/>
<path d="M1000 1281 c0 -6 4 -13 10 -16 6 -3 7 1 4 9 -7 18 -14 21 -14 7z"/>
<path d="M1220 1279 c11 -8 12 -12 3 -16 -7 -2 -13 -13 -13 -24 0 -22 -11 -24
-28 -7 -8 8 -15 8 -26 -1 -8 -7 -26 -9 -43 -6 -27 6 -27 6 -8 -10 13 -11 30
-14 49 -11 20 4 33 1 43 -11 8 -10 12 -13 9 -7 -3 7 1 17 9 24 8 7 15 21 15
31 0 11 5 16 14 13 7 -3 16 2 19 10 4 11 1 13 -10 9 -11 -4 -14 -2 -9 5 5 8
-1 12 -16 12 -19 0 -20 -2 -8 -11z"/>
<path d="M648 1263 c7 -3 16 -2 19 1 4 3 -2 6 -13 5 -11 0 -14 -3 -6 -6z"/>
<path d="M840 1246 c0 -14 4 -27 8 -30 5 -3 6 8 4 25 -5 35 -12 38 -12 5z"/>
<path d="M1047 1263 c-4 -3 -7 -13 -7 -21 0 -12 3 -12 15 -2 8 7 15 16 15 21
0 11 -14 12 -23 2z"/>
<path d="M1718 1253 c-11 -13 0 -18 30 -14 6 1 12 -3 12 -9 0 -6 10 -8 25 -4
17 4 25 2 25 -7 0 -7 2 -10 5 -7 13 12 -8 38 -26 33 -21 -7 -27 11 -6 18 6 2
-3 4 -21 3 -19 -1 -38 -7 -44 -13z"/>
<path d="M1927 1239 c16 -31 31 -33 18 -2 -5 10 -7 21 -7 26 1 4 -4 7 -12 7
-12 0 -12 -5 1 -31z"/>
<path d="M1962 1235 c1 -22 -4 -40 -13 -46 -9 -6 -10 -9 -2 -9 7 0 10 -7 6
-17 -5 -12 -3 -14 8 -8 11 7 11 5 -1 -9 -14 -18 -15 -18 -20 5 -5 21 -7 22
-13 6 -5 -13 2 -23 26 -37 17 -11 36 -20 41 -20 4 0 28 -13 52 -30 24 -16 44
-25 44 -19 0 6 5 7 10 4 6 -4 8 -9 6 -13 -2 -4 8 -8 22 -8 l27 -2 -22 15 c-13
9 -23 20 -23 25 0 5 13 0 30 -12 18 -13 27 -26 23 -35 -3 -9 1 -15 10 -15 10
0 13 -7 10 -25 -5 -23 -4 -23 21 -12 27 13 37 33 11 23 -8 -3 -15 -2 -16 2 0
4 -2 15 -4 25 -2 10 3 17 11 17 8 0 17 13 21 30 3 17 10 30 15 30 6 0 8 -6 5
-14 -3 -7 0 -19 6 -25 14 -14 47 -14 47 0 0 6 -9 8 -22 4 -16 -6 -20 -4 -15 8
8 22 -16 50 -46 53 -28 3 -45 -10 -27 -21 5 -3 10 -10 10 -16 0 -13 -27 -11
-34 4 -5 10 -7 10 -12 0 -8 -18 -24 -16 -24 2 0 8 6 15 13 15 8 0 7 4 -3 10
-17 11 -37 14 -27 4 11 -11 -13 -44 -31 -44 -9 1 -30 11 -46 24 -15 13 -36 22
-45 19 -12 -3 -16 3 -16 29 0 32 2 34 38 35 31 2 40 -2 47 -20 l9 -22 0 23 c1
20 -33 44 -57 41 -24 -4 -32 3 -30 27 2 15 -3 29 -9 31 -9 3 -12 -7 -11 -32z
m220 -163 c12 -5 15 -11 9 -21 -8 -12 -12 -12 -25 2 -26 26 -20 33 16 19z"/>
<path d="M2140 1260 c-13 -8 -12 -10 3 -10 9 0 17 5 17 10 0 12 -1 12 -20 0z"/>
<path d="M900 1251 c0 -6 5 -13 10 -16 6 -3 10 1 10 9 0 9 -4 16 -10 16 -5 0
-10 -4 -10 -9z"/>
<path d="M870 1219 c0 -19 -5 -40 -12 -47 -9 -9 -4 -10 21 -2 33 9 61 4 73
-14 5 -8 8 -7 8 1 0 7 -17 20 -37 30 -22 10 -39 27 -41 38 -6 33 -12 30 -12
-6z"/>
<path d="M1303 1243 c-18 -7 -16 -23 2 -23 8 0 15 7 15 15 0 8 -1 15 -2 14 -2
0 -9 -3 -15 -6z"/>
<path d="M1665 1240 c-8 -13 5 -13 25 0 13 8 13 10 -2 10 -9 0 -20 -4 -23 -10z"/>
<path d="M120 1223 c0 -13 -5 -23 -11 -23 -5 0 -7 5 -4 10 10 16 -11 12 -25
-5 -11 -13 -10 -14 3 -10 8 4 18 2 22 -4 3 -6 1 -11 -6 -11 -10 0 -10 -3 -2
-11 13 -13 33 -4 33 14 0 16 38 39 50 32 6 -4 10 -2 10 3 0 14 -39 22 -46 10
-4 -6 -10 -5 -15 3 -6 10 -9 8 -9 -8z"/>
<path d="M1233 1215 c-10 -22 -9 -25 8 -25 11 0 24 -10 29 -22 l9 -23 0 23 c1
12 -4 22 -10 22 -8 0 -7 5 1 15 11 13 10 14 -3 9 -9 -3 -17 1 -19 10 -2 11 -6
9 -15 -9z"/>
<path d="M2310 1230 c-9 -6 -10 -10 -3 -10 6 0 15 5 18 10 8 12 4 12 -15 0z"/>
<path d="M386 1221 c-17 -6 -17 -8 -4 -14 10 -3 19 0 22 9 3 8 4 14 3 13 -1 0
-11 -4 -21 -8z"/>
<path d="M973 1215 c-18 -20 -16 -35 5 -35 12 0 18 8 20 25 2 28 -7 31 -25 10z"/>
<path d="M1890 1221 c0 -6 4 -13 10 -16 6 -3 7 1 4 9 -7 18 -14 21 -14 7z"/>
<path d="M2046 1218 c3 -4 15 -8 26 -8 12 0 18 3 14 7 -10 10 -46 11 -40 1z"/>
<path d="M1323 1206 c-4 -7 -15 -16 -23 -19 -12 -4 -12 -6 2 -6 10 -1 22 8 28
19 12 22 6 28 -7 6z"/>
<path d="M2106 1205 c-11 -8 -17 -17 -15 -20 9 -8 48 7 53 21 7 18 -14 17 -38
-1z"/>
<path d="M195 1199 c-5 -8 -1 -9 15 -4 15 5 20 4 16 -4 -4 -6 -2 -11 4 -11 17
0 6 24 -12 28 -9 2 -19 -2 -23 -9z"/>
<path d="M1665 1200 c-3 -5 -1 -10 4 -10 6 0 11 5 11 10 0 6 -2 10 -4 10 -3 0
-8 -4 -11 -10z"/>
<path d="M2703 1203 c-7 -2 -13 -9 -13 -15 0 -6 6 -6 15 2 12 10 15 9 15 -7 0
-11 7 -20 15 -20 18 0 20 13 3 20 -10 4 -10 6 0 6 6 1 12 6 12 11 0 10 -26 12
-47 3z"/>
<path d="M635 1189 c-4 -6 -4 -13 -1 -16 3 -4 6 -1 6 5 0 6 8 13 18 15 15 4
15 5 0 6 -9 0 -20 -4 -23 -10z"/>
<path d="M824 1187 c-15 -8 -19 -18 -15 -30 6 -17 8 -17 20 -3 7 9 10 16 5 16
-5 0 0 7 10 15 24 18 10 19 -20 2z"/>
<path d="M1040 1189 c0 -5 5 -7 10 -4 6 3 10 8 10 11 0 2 -4 4 -10 4 -5 0 -10
-5 -10 -11z"/>
<path d="M1076 1192 c-3 -6 -1 -14 5 -17 15 -10 25 3 12 16 -7 7 -13 7 -17 1z"/>
<path d="M1825 1190 c-3 -5 -1 -10 4 -10 6 0 11 5 11 10 0 6 -2 10 -4 10 -3 0
-8 -4 -11 -10z"/>
<path d="M1913 1193 c-15 -5 -17 -23 -4 -23 5 0 11 7 15 15 3 8 4 15 3 14 -1
0 -8 -3 -14 -6z"/>
<path d="M2372 1193 c-29 -4 -32 -6 -20 -21 11 -14 10 -15 -7 -8 -38 15 -92
18 -114 7 -30 -16 -27 -33 4 -19 19 9 38 8 75 0 53 -12 90 -2 90 25 0 6 10 14
23 16 17 3 18 4 2 4 -11 0 -35 -2 -53 -4z"/>
<path d="M396 1175 c4 -8 8 -15 10 -15 2 0 4 7 4 15 0 8 -4 15 -10 15 -5 0 -7
-7 -4 -15z"/>
<path d="M753 1176 c3 -8 -1 -17 -10 -20 -9 -4 -13 -9 -10 -13 9 -8 37 17 37
33 0 8 -5 14 -11 14 -6 0 -9 -6 -6 -14z"/>
<path d="M1685 1179 c-11 -16 -1 -19 13 -3 7 8 8 14 3 14 -5 0 -13 -5 -16 -11z"/>
<path d="M1020 1170 c0 -5 5 -10 11 -10 5 0 7 5 4 10 -3 6 -8 10 -11 10 -2 0
-4 -4 -4 -10z"/>
<path d="M1713 1169 c-6 -6 -8 -19 -6 -30 4 -16 8 -17 20 -7 11 9 16 9 22 -1
6 -10 10 -9 14 3 7 19 -6 28 -27 20 -12 -5 -15 -2 -10 10 7 19 3 21 -13 5z"/>
<path d="M2472 1165 c2 -16 -2 -20 -25 -20 -26 1 -27 0 -11 -12 10 -7 23 -13
30 -13 18 0 28 40 14 54 -9 8 -11 6 -8 -9z"/>
<path d="M70 1163 c0 -16 57 -56 64 -45 3 5 -7 15 -22 23 -15 8 -30 18 -34 24
-5 6 -8 6 -8 -2z"/>
<path d="M265 1151 c-13 -13 -15 -13 -15 -1 0 11 -3 11 -12 2 -9 -9 -9 -15 0
-24 7 -7 12 -9 12 -5 0 4 9 3 20 -3 16 -9 20 -8 20 5 0 9 7 18 15 21 8 4 15 9
15 13 0 13 -40 7 -55 -8z"/>
<path d="M168 1152 c-30 -4 -33 -9 -19 -31 7 -11 13 -9 31 9 25 25 24 27 -12
22z"/>
<path d="M342 1144 c-12 -8 -22 -21 -22 -27 0 -8 3 -7 9 2 5 7 14 10 20 7 6
-4 14 0 17 9 9 23 1 27 -24 9z"/>
<path d="M445 1150 c-3 -6 1 -7 9 -4 18 7 21 14 7 14 -6 0 -13 -4 -16 -10z"/>
<path d="M711 1144 c0 -11 3 -14 6 -6 3 7 2 16 -1 19 -3 4 -6 -2 -5 -13z"/>
<path d="M2090 1150 c0 -5 5 -10 10 -10 6 0 10 5 10 10 0 6 -4 10 -10 10 -5 0
-10 -4 -10 -10z"/>
<path d="M2134 1148 c-5 -7 -2 -9 9 -5 9 3 18 1 21 -6 2 -7 5 -4 5 6 1 19 -24
23 -35 5z"/>
<path d="M2520 1137 c0 -17 5 -27 15 -27 19 0 19 9 0 34 -14 19 -15 19 -15 -7z"/>
<path d="M2671 1143 c-13 -14 -12 -18 4 -29 10 -7 23 -10 29 -6 7 4 5 8 -6 10
-19 4 -25 22 -8 22 6 0 10 5 10 10 0 15 -13 12 -29 -7z"/>
<path d="M391 1134 c0 -11 3 -14 6 -6 3 7 2 16 -1 19 -3 4 -6 -2 -5 -13z"/>
<path d="M1681 1141 c-1 -8 -9 -20 -18 -27 -10 -7 -13 -14 -7 -14 17 0 37 27
31 42 -4 10 -6 10 -6 -1z"/>
<path d="M890 1122 c0 -10 7 -19 14 -19 11 0 13 5 5 19 -5 10 -12 18 -14 18
-3 0 -5 -8 -5 -18z"/>
<path d="M1041 1119 c-15 -17 -23 -19 -39 -10 -15 8 -23 8 -28 0 -3 -6 -15 -9
-25 -6 -17 5 -18 3 -3 -24 11 -22 12 -29 2 -29 -9 0 -9 -3 2 -11 12 -8 8 -9
-15 -5 l-30 5 28 -12 c15 -6 27 -15 27 -19 0 -5 6 -3 14 4 10 9 11 15 2 21 -8
5 -6 11 6 21 10 7 15 16 11 19 -3 4 3 7 15 7 11 0 23 -6 25 -12 3 -7 6 -3 6
10 1 16 7 22 24 22 28 0 54 16 43 27 -5 4 -11 2 -13 -4 -3 -7 -9 -13 -15 -13
-6 0 -8 7 -4 15 8 22 -10 18 -33 -6z"/>
<path d="M2365 1119 c-16 -11 -23 -19 -15 -19 16 1 56 27 49 34 -2 2 -17 -5
-34 -15z"/>
<path d="M2720 1130 c0 -5 5 -10 11 -10 5 0 7 5 4 10 -3 6 -8 10 -11 10 -2 0
-4 -4 -4 -10z"/>
<path d="M836 1121 c-4 -6 -2 -11 3 -11 6 0 11 -4 11 -10 0 -5 -9 -10 -20 -10
-11 0 -20 -2 -20 -4 0 -2 -3 -11 -6 -19 -4 -11 1 -13 23 -10 l28 5 -28 -20
c-19 -13 -24 -21 -16 -24 11 -4 11 -10 2 -31 -7 -15 -9 -27 -4 -27 5 0 12 12
16 28 8 31 37 62 60 62 8 0 15 5 15 10 0 6 -3 9 -7 9 -21 -3 -66 4 -50 8 18 5
22 20 8 42 -6 9 -11 10 -15 2z"/>
<path d="M1870 1119 c0 -5 5 -7 10 -4 6 3 10 8 10 11 0 2 -4 4 -10 4 -5 0 -10
-5 -10 -11z"/>
<path d="M2610 1105 c-13 -14 -19 -25 -14 -25 5 0 15 9 22 20 7 12 18 18 24
14 7 -4 8 -3 4 4 -9 16 -9 16 -36 -13z"/>
<path d="M630 1110 c0 -5 5 -10 11 -10 5 0 7 5 4 10 -3 6 -8 10 -11 10 -2 0
-4 -4 -4 -10z"/>
<path d="M663 1114 c6 -7 107 -7 114 -1 2 3 -23 6 -57 6 -34 0 -60 -2 -57 -5z"/>
<path d="M2282 1108 c6 -18 28 -21 28 -4 0 9 -7 16 -16 16 -9 0 -14 -5 -12
-12z"/>
<path d="M1612 1080 c0 -19 2 -27 5 -17 2 9 2 25 0 35 -3 9 -5 1 -5 -18z"/>
<path d="M2471 1101 c-9 -6 -6 -8 13 -8 14 0 23 3 20 8 -7 11 -15 11 -33 0z"/>
<path d="M2420 1090 c0 -5 4 -10 9 -10 6 0 13 5 16 10 3 6 -1 10 -9 10 -9 0
-16 -4 -16 -10z"/>
<path d="M917 1083 c-4 -3 -7 -11 -7 -17 0 -6 5 -5 12 2 6 6 9 14 7 17 -3 3
-9 2 -12 -2z"/>
<path d="M1281 1074 c0 -11 3 -14 6 -6 3 7 2 16 -1 19 -3 4 -6 -2 -5 -13z"/>
<path d="M1630 1074 c0 -8 5 -12 10 -9 6 4 8 11 5 16 -9 14 -15 11 -15 -7z"/>
<path d="M2505 1075 l-30 -13 38 -1 c20 -1 37 -6 37 -11 0 -6 7 -6 19 2 10 6
17 18 14 25 -7 17 -39 16 -78 -2z"/>
<path d="M576 1071 c-3 -5 1 -11 9 -15 15 -6 29 7 18 18 -9 9 -21 8 -27 -3z"/>
<path d="M2323 1065 c0 -8 6 -15 13 -15 7 0 20 -7 28 -15 12 -12 20 -13 36 -5
16 8 18 8 14 -4 -3 -9 -9 -15 -12 -14 -20 2 -32 -3 -27 -12 3 -5 2 -10 -4 -10
-5 0 -13 5 -16 10 -9 15 -25 12 -19 -3 3 -8 -2 -14 -13 -14 -23 0 -45 16 -37
28 9 15 -27 23 -38 8 -7 -10 -8 -7 -3 11 5 23 5 23 -8 8 -8 -10 -17 -15 -20
-11 -4 3 -7 1 -7 -5 0 -6 16 -16 35 -23 19 -7 35 -18 35 -25 0 -7 9 -10 23 -8
12 2 16 2 9 -2 -6 -3 -9 -11 -6 -16 4 -6 2 -8 -4 -4 -6 3 -13 2 -17 -4 -3 -5
-12 -10 -18 -10 -7 0 -6 4 3 10 8 5 11 10 6 10 -5 0 -18 -8 -28 -17 -17 -15
-18 -15 -13 -1 6 15 -19 31 -41 27 -27 -5 -35 2 -29 24 6 20 4 19 -17 -6 -27
-32 -64 -43 -72 -20 -3 8 -3 20 1 26 4 7 -1 6 -10 -2 -16 -12 -22 -8 -18 12 1
5 -3 6 -9 2 -14 -9 -13 8 3 24 10 10 9 11 -4 6 -10 -4 -20 -2 -24 4 -3 6 1 11
10 11 10 0 13 5 9 12 -5 8 -13 4 -25 -11 -10 -12 -20 -17 -23 -12 -12 19 -66
23 -91 7 -14 -9 -25 -13 -25 -9 0 5 -4 3 -8 -4 -4 -6 -20 -18 -36 -27 -22 -11
-31 -12 -41 -3 -7 7 -11 15 -9 18 2 4 -2 9 -9 12 -10 4 -13 -2 -9 -18 4 -24
-9 -28 -35 -12 -8 5 -13 3 -13 -7 0 -9 -4 -16 -10 -16 -5 0 -10 7 -10 15 0 17
-16 20 -25 4 -4 -6 -13 -8 -20 -5 -7 2 -18 -1 -24 -7 -9 -9 -14 -8 -21 3 -7
11 1 17 38 26 26 7 51 10 57 7 5 -3 3 2 -5 11 -14 15 -20 14 -70 -4 -54 -20
-98 -49 -52 -35 18 5 22 2 22 -15 0 -12 4 -19 9 -15 5 3 13 0 17 -6 5 -9 -1
-10 -22 -5 -16 4 -32 13 -36 19 -5 8 -12 6 -23 -8 -9 -11 -14 -15 -11 -10 2 6
-5 11 -16 11 -20 0 -20 0 1 -17 12 -10 21 -26 21 -38 0 -11 5 -23 10 -26 6 -3
10 -1 10 4 0 6 7 11 15 11 9 0 15 9 15 23 0 18 2 19 10 7 8 -12 10 -12 10 -1
0 8 3 12 6 8 4 -3 13 1 21 9 9 8 18 12 22 8 3 -4 0 -9 -6 -11 -7 -3 -13 -9
-13 -14 0 -16 19 -10 37 11 10 11 25 20 35 20 10 0 18 5 18 11 0 8 16 10 50 6
28 -3 50 -3 50 1 0 4 10 12 23 18 12 6 36 19 53 29 42 25 74 15 136 -45 51
-49 52 -51 40 -82 -6 -18 -8 -34 -4 -37 14 -10 9 -51 -6 -51 -11 0 -12 -3 -2
-14 18 -23 37 -9 32 24 -3 23 0 29 19 33 22 4 22 4 -3 6 -25 1 -42 21 -19 21
5 0 12 8 15 18 4 9 15 28 25 41 l18 23 41 -21 c23 -12 58 -23 78 -26 20 -2 49
-10 64 -16 26 -12 26 -13 8 -31 -10 -10 -27 -18 -37 -18 -31 0 -51 -11 -51
-28 0 -13 3 -13 19 2 12 11 27 15 44 11 22 -6 27 -2 40 27 8 18 18 41 21 52 4
13 13 17 29 14 18 -4 23 0 22 15 -1 10 -9 23 -18 28 -15 9 -15 11 0 29 9 10
20 17 23 15 4 -2 7 9 7 25 0 17 -5 29 -11 28 -6 0 -24 4 -39 10 -35 15 -40 15
-32 2 3 -5 1 -10 -4 -10 -6 0 -11 5 -11 10 0 6 -4 10 -8 10 -5 0 -9 -7 -9 -15z
m-648 -96 c-6 -15 -55 -22 -55 -8 0 5 11 9 25 9 14 0 25 5 25 12 0 6 2 9 5 6
3 -3 3 -11 0 -19z m691 -15 c2 -18 -2 -24 -12 -20 -17 7 -18 -6 -2 -22 9 -9 7
-12 -10 -12 -15 0 -22 6 -22 19 0 28 11 52 21 45 5 -3 9 0 9 5 0 23 15 9 16
-15z m-805 -27 c-13 -13 -26 -3 -16 12 3 6 11 8 17 5 6 -4 6 -10 -1 -17z m544
3 c3 -5 1 -10 -4 -10 -6 0 -11 5 -11 10 0 6 2 10 4 10 3 0 8 -4 11 -10z m-535
-20 c0 -5 -8 -10 -17 -10 -15 0 -16 2 -3 10 19 12 20 12 20 0z"/>
<path d="M628 1049 c-16 -17 -14 -29 4 -29 4 0 8 6 8 14 0 8 5 16 12 18 7 3 8
7 3 10 -6 2 -17 -3 -27 -13z"/>
<path d="M680 1060 c-13 -8 -12 -10 3 -10 9 0 17 5 17 10 0 12 -1 12 -20 0z"/>
<path d="M720 1060 c0 -5 5 -10 11 -10 5 0 7 5 4 10 -3 6 -8 10 -11 10 -2 0
-4 -4 -4 -10z"/>
<path d="M2732 1051 c7 -9 14 -18 15 -20 2 -2 3 5 3 16 0 11 -7 20 -15 20 -12
0 -12 -3 -3 -16z"/>
<path d="M763 1045 c0 -18 19 -15 25 3 2 7 -3 12 -10 12 -8 0 -15 -7 -15 -15z"/>
<path d="M1780 1050 c0 -5 5 -10 10 -10 6 0 10 5 10 10 0 6 -4 10 -10 10 -5 0
-10 -4 -10 -10z"/>
<path d="M1815 1040 c-3 -5 -1 -10 4 -10 6 0 11 5 11 10 0 6 -2 10 -4 10 -3 0
-8 -4 -11 -10z"/>
<path d="M2700 1040 c0 -5 5 -10 10 -10 6 0 10 -7 10 -17 0 -9 3 -14 6 -10 8
8 -5 47 -17 47 -5 0 -9 -4 -9 -10z"/>
<path d="M198 1033 c7 -3 16 -2 19 1 4 3 -2 6 -13 5 -11 0 -14 -3 -6 -6z"/>
<path d="M458 1033 c7 -3 16 -2 19 1 4 3 -2 6 -13 5 -11 0 -14 -3 -6 -6z"/>
<path d="M546 1031 c-4 -7 -5 -15 -2 -18 9 -9 19 4 14 18 -4 11 -6 11 -12 0z"/>
<path d="M1536 1026 c10 -8 21 -10 22 -5 2 5 9 6 14 3 7 -4 8 -2 4 4 -4 7 -19
12 -34 12 -25 0 -25 -1 -6 -14z"/>
<path d="M1705 1030 c3 -5 11 -10 16 -10 6 0 7 5 4 10 -3 6 -11 10 -16 10 -6
0 -7 -4 -4 -10z"/>
<path d="M2490 1028 c0 -4 -8 -4 -17 -1 -16 6 -16 5 -4 -11 8 -9 17 -13 20 -9
3 5 17 14 31 20 l25 11 -27 -2 c-16 0 -28 -4 -28 -8z"/>
<path d="M2667 1029 c7 -7 15 -10 18 -7 3 3 -2 9 -12 12 -14 6 -15 5 -6 -5z"/>
<path d="M570 1020 c0 -5 5 -10 10 -10 6 0 10 5 10 10 0 6 -4 10 -10 10 -5 0
-10 -4 -10 -10z"/>
<path d="M1208 1023 c7 -3 16 -2 19 1 4 3 -2 6 -13 5 -11 0 -14 -3 -6 -6z"/>
<path d="M1360 1019 c0 -5 5 -7 10 -4 6 3 10 8 10 11 0 2 -4 4 -10 4 -5 0 -10
-5 -10 -11z"/>
<path d="M2307 1023 c-4 -3 -7 -11 -7 -17 0 -6 5 -5 12 2 6 6 9 14 7 17 -3 3
-9 2 -12 -2z"/>
<path d="M505 1010 c-3 -5 -2 -10 4 -10 5 0 13 5 16 10 3 6 2 10 -4 10 -5 0
-13 -4 -16 -10z"/>
<path d="M864 1012 c11 -19 16 -72 6 -72 -5 0 -10 9 -10 20 0 11 -6 20 -14 20
-9 0 -12 -7 -9 -20 3 -11 9 -20 14 -20 5 0 9 -8 9 -17 0 -13 3 -14 11 -6 6 6
18 9 26 6 8 -3 18 -2 22 3 3 5 21 19 39 32 27 19 36 21 48 11 13 -11 11 -14
-16 -25 -17 -8 -29 -18 -25 -24 3 -5 0 -7 -8 -4 -8 3 -21 -6 -32 -23 l-18 -28
22 19 c11 11 24 16 28 12 4 -4 1 -11 -6 -15 -8 -5 -9 -11 -3 -15 5 -3 13 1 16
9 3 9 17 20 31 25 15 6 23 15 20 20 -4 6 -1 17 5 25 9 11 8 20 -8 40 -17 21
-21 23 -32 10 -7 -8 -17 -12 -23 -8 -5 3 -7 1 -4 -4 8 -13 -9 -28 -41 -38 -21
-6 -23 -4 -17 14 4 14 2 21 -7 21 -9 1 -7 5 4 14 10 7 15 16 11 19 -9 10 -45
8 -39 -1z m136 -92 c0 -5 -5 -10 -11 -10 -5 0 -7 5 -4 10 3 6 8 10 11 10 2 0
4 -4 4 -10z"/>
<path d="M1010 1011 c0 -5 5 -13 10 -16 6 -3 10 -2 10 4 0 5 -4 13 -10 16 -5
3 -10 2 -10 -4z"/>
<path d="M1515 1010 c-3 -5 -1 -18 5 -27 9 -15 10 -14 4 6 -4 17 -3 21 6 16 9
-5 11 -4 6 3 -9 15 -13 15 -21 2z"/>
<path d="M1798 1013 c7 -3 16 -2 19 1 4 3 -2 6 -13 5 -11 0 -14 -3 -6 -6z"/>
<path d="M413 995 c-20 -22 -16 -25 37 -25 30 0 50 4 50 11 0 6 -7 8 -16 5 -8
-3 -25 1 -37 8 -19 12 -24 12 -34 1z"/>
<path d="M733 998 c1 -6 -14 -13 -33 -15 -19 -3 -42 -11 -51 -19 -8 -8 -21
-14 -27 -14 -6 0 -9 -7 -6 -15 4 -8 1 -15 -5 -15 -6 0 -11 5 -11 10 0 6 -4 10
-10 10 -5 0 -10 -7 -10 -15 0 -8 -7 -15 -16 -15 -8 0 -12 5 -8 11 8 14 -38
-10 -47 -24 -4 -5 -15 -5 -28 2 -21 11 -31 -1 -11 -14 5 -3 6 -13 3 -23 -6
-16 -6 -16 11 1 9 9 26 17 36 17 10 0 26 3 35 6 13 5 16 2 14 -11 -2 -9 -19
-23 -38 -29 -19 -6 -36 -17 -39 -24 -3 -10 2 -10 22 -1 20 9 29 9 40 0 8 -7
20 -10 25 -7 5 4 13 0 18 -8 4 -8 30 -17 56 -20 32 -4 46 -3 42 4 -10 16 19
22 48 11 22 -9 31 -7 51 13 18 16 22 26 15 33 -12 12 -4 33 12 33 5 0 9 -9 9
-19 0 -10 7 -21 15 -25 9 -3 15 0 15 8 0 8 6 17 13 19 7 4 6 6 -5 6 -9 1 -19
-5 -21 -11 -3 -7 -6 -3 -6 10 -1 12 -8 25 -16 28 -8 4 -15 10 -15 15 0 4 6 6
14 3 11 -4 13 0 9 15 -11 42 -29 19 -25 -31 1 -12 -4 -16 -16 -12 -13 5 -14 4
-3 -4 17 -13 -3 -26 -27 -18 -10 4 -7 -1 7 -12 19 -16 21 -20 8 -25 -9 -3 -18
1 -21 9 -3 8 -11 14 -17 14 -9 0 -9 -3 0 -14 9 -11 7 -14 -11 -14 -13 0 -38
-4 -56 -10 -30 -10 -33 -9 -28 6 5 16 5 16 -6 0 -11 -15 -14 -15 -40 4 -22 15
-26 23 -18 33 6 7 8 20 4 29 -6 16 20 24 29 9 2 -5 2 -3 1 4 -4 14 53 58 78
59 9 1 17 -2 16 -5 -2 -17 3 -20 16 -9 7 7 11 19 9 25 -3 7 2 13 12 13 10 0
13 -4 9 -12 -5 -9 -3 -9 9 1 9 7 15 17 12 21 -8 12 -45 19 -42 8z"/>
<path d="M1915 1000 c5 -9 -16 -15 -38 -11 -5 1 -5 -4 -2 -10 4 -6 18 -9 32
-6 13 2 30 -2 39 -10 8 -8 14 -10 14 -4 0 19 28 12 50 -11 11 -12 19 -31 18
-42 -4 -24 27 -34 35 -12 4 10 -13 33 -45 66 -48 46 -79 66 -62 39 5 -8 1 -8
-14 0 -26 14 -35 14 -27 1z"/>
<path d="M2513 993 c-18 -9 -33 -20 -33 -24 0 -11 38 1 51 17 7 9 21 11 37 7
17 -4 23 -2 18 6 -10 15 -34 13 -73 -6z"/>
<path d="M370 990 c-8 -5 -11 -12 -7 -16 4 -4 13 -2 19 4 15 15 7 24 -12 12z"/>
<path d="M1440 980 c0 -5 7 -10 15 -10 8 0 15 5 15 10 0 6 -7 10 -15 10 -8 0
-15 -4 -15 -10z"/>
<path d="M2720 980 c0 -5 7 -10 15 -10 8 0 15 5 15 10 0 6 -7 10 -15 10 -8 0
-15 -4 -15 -10z"/>
<path d="M2250 969 c0 -5 5 -7 10 -4 6 3 10 8 10 11 0 2 -4 4 -10 4 -5 0 -10
-5 -10 -11z"/>
<path d="M1040 960 c0 -6 7 -10 15 -10 8 0 15 2 15 4 0 2 -7 6 -15 10 -8 3
-15 1 -15 -4z"/>
<path d="M2442 959 c2 -6 8 -10 13 -10 5 0 11 4 13 10 2 6 -4 11 -13 11 -9 0
-15 -5 -13 -11z"/>
<path d="M2534 956 c-4 -9 -3 -20 1 -24 4 -4 10 -1 12 6 3 6 9 10 14 7 5 -4
17 -1 26 4 16 9 16 10 1 11 -9 0 -23 3 -32 6 -10 4 -18 0 -22 -10z"/>
<path d="M340 939 l-25 -20 25 7 c14 4 27 10 30 14 3 4 12 10 20 13 11 4 9 6
-5 6 -11 0 -31 -9 -45 -20z"/>
<path d="M767 949 c-18 -11 -14 -29 6 -29 7 0 13 9 13 20 0 11 0 20 -1 20 0 0
-8 -5 -18 -11z"/>
<path d="M1379 953 c-21 -3 -26 -8 -22 -24 3 -12 9 -16 12 -11 3 5 20 16 36
25 30 16 25 18 -26 10z"/>
<path d="M1837 944 c3 -10 17 -11 57 -5 20 2 -7 15 -33 16 -18 0 -27 -4 -24
-11z"/>
<path d="M2710 944 c0 -10 -6 -14 -15 -10 -8 3 -15 0 -15 -7 0 -7 -5 -4 -11 6
-12 21 -31 23 -23 2 4 -10 0 -15 -11 -15 -9 0 -13 5 -10 10 7 11 -6 13 -29 4
-9 -3 -16 -13 -16 -20 0 -18 73 -17 110 2 17 8 31 9 43 3 23 -14 21 3 -3 24
-18 15 -20 15 -20 1z"/>
<path d="M475 939 c-4 -6 -5 -12 -2 -15 2 -3 7 2 10 11 7 17 1 20 -8 4z"/>
<path d="M1790 931 c0 -9 24 -21 42 -21 6 0 6 6 -2 15 -14 16 -40 20 -40 6z"/>
<path d="M2470 930 c0 -5 4 -10 9 -10 6 0 13 5 16 10 3 6 -1 10 -9 10 -9 0
-16 -4 -16 -10z"/>
<path d="M231 914 c0 -11 3 -14 6 -6 3 7 2 16 -1 19 -3 4 -6 -2 -5 -13z"/>
<path d="M1457 923 c-12 -11 -8 -23 8 -23 8 0 15 7 15 15 0 16 -12 20 -23 8z"/>
<path d="M1947 924 c-8 -8 1 -24 14 -24 5 0 9 7 9 15 0 15 -12 20 -23 9z"/>
<path d="M1990 916 c0 -8 4 -17 9 -21 6 -3 9 4 8 15 -1 23 -17 28 -17 6z"/>
<path d="M1667 906 c-11 -8 -14 -17 -8 -20 5 -4 14 2 20 11 6 10 11 12 11 6 0
-7 11 -13 25 -13 20 0 27 -6 32 -31 4 -21 8 -26 14 -18 4 7 5 17 2 22 -3 5 1
13 8 18 11 7 10 9 -3 9 -11 0 -15 5 -12 15 7 18 -7 20 -25 3 -11 -10 -14 -10
-18 0 -6 16 -23 15 -46 -2z"/>
<path d="M1881 904 c0 -11 3 -14 6 -6 3 7 2 16 -1 19 -3 4 -6 -2 -5 -13z"/>
<path d="M2134 895 c-21 -33 -12 -42 20 -21 14 9 33 16 43 16 17 1 17 1 0 11
-13 8 -22 7 -33 -2 -12 -10 -13 -9 -8 5 9 24 -3 19 -22 -9z"/>
<path d="M2525 909 c-9 -14 -2 -20 14 -10 8 6 9 11 3 15 -6 3 -14 1 -17 -5z"/>
<path d="M380 906 c0 -2 7 -6 15 -10 8 -3 15 -1 15 4 0 6 -7 10 -15 10 -8 0
-15 -2 -15 -4z"/>
<path d="M430 895 c0 -8 5 -15 10 -15 6 0 10 7 10 15 0 8 -4 15 -10 15 -5 0
-10 -7 -10 -15z"/>
<path d="M736 895 c-25 -19 -16 -19 20 0 16 8 22 15 14 15 -8 -1 -24 -7 -34
-15z"/>
<path d="M1276 879 c-10 -51 -7 -68 14 -86 11 -10 20 -24 21 -33 0 -10 3 -9 9
5 5 11 9 15 9 8 1 -7 8 -10 16 -7 10 4 15 0 15 -16 0 -11 -4 -19 -9 -16 -5 3
-11 -1 -14 -8 -3 -8 -1 -17 6 -20 8 -3 8 -5 -1 -5 -8 -1 -16 8 -19 19 -3 11
-10 20 -15 20 -6 0 -8 -7 -4 -15 3 -8 0 -15 -6 -15 -7 0 -3 -7 8 -15 10 -8 29
-15 42 -15 17 0 22 6 22 24 0 13 7 27 16 30 21 8 18 9 44 -14 13 -11 34 -21
47 -21 12 -1 29 -2 36 -3 6 -1 15 -5 19 -11 9 -13 28 6 32 31 2 14 10 18 31
16 18 -3 25 0 21 7 -4 6 -14 11 -23 11 -12 0 -11 5 7 20 22 19 22 20 3 20 -25
0 -39 -16 -48 -53 -6 -21 -13 -27 -34 -27 -20 0 -23 2 -11 10 20 13 -5 14 -29
1 -10 -6 -23 -6 -31 -1 -15 9 -14 10 30 23 8 2 -13 7 -47 11 -47 5 -63 11 -63
23 0 9 -6 13 -14 10 -7 -3 -19 0 -25 6 -7 7 -19 12 -29 12 -14 0 -17 9 -15 53
3 59 -1 67 -11 21z"/>
<path d="M1329 891 c6 -10 7 -21 4 -25 -6 -6 25 -35 38 -36 4 0 10 7 13 16 7
18 -11 47 -24 39 -4 -3 -10 2 -14 10 -3 8 -10 15 -16 15 -7 0 -8 -6 -1 -19z
m48 -27 c-3 -3 -12 -4 -19 -1 -8 3 -5 6 6 6 11 1 17 -2 13 -5z"/>
<path d="M1584 892 c-17 -14 -19 -23 -12 -49 5 -18 14 -35 20 -39 7 -5 9 -2 6
7 -18 43 -18 51 0 23 26 -41 38 -48 46 -27 6 15 8 15 16 3 6 -9 10 -10 10 -3
0 17 -21 28 -29 15 -4 -6 -11 -8 -16 -4 -14 10 -18 62 -6 62 6 0 8 7 5 15 -8
19 -14 18 -40 -3z"/>
<path d="M2463 895 c6 -7 15 -11 20 -8 13 8 7 19 -13 20 -16 1 -17 -1 -7 -12z"/>
<path d="M2680 895 c-13 -15 -14 -15 34 -29 10 -3 13 0 9 10 -3 7 -10 14 -17
14 -6 0 -4 5 4 10 13 8 13 10 -1 10 -9 0 -22 -7 -29 -15z"/>
<path d="M870 890 c-9 -6 -10 -10 -3 -10 6 0 15 5 18 10 8 12 4 12 -15 0z"/>
<path d="M1000 879 c-19 -11 -26 -17 -15 -13 11 3 25 7 32 7 7 0 14 6 17 14 7
16 8 16 -34 -8z"/>
<path d="M1820 890 c0 -5 -7 -10 -15 -10 -8 0 -15 -5 -15 -11 0 -7 11 -4 27 6
22 15 25 15 20 2 -5 -13 10 -27 29 -27 11 0 2 24 -13 36 -22 16 -33 17 -33 4z"/>
<path d="M230 884 c0 -7 -16 -10 -40 -9 -22 1 -37 -2 -34 -6 3 -5 16 -6 30 -3
16 4 24 2 24 -6 0 -9 3 -10 14 -1 11 9 15 8 20 -5 9 -22 8 -26 -6 -18 -7 4 -8
3 -4 -4 4 -7 13 -12 21 -12 7 0 15 -6 18 -12 3 -10 8 -10 16 -2 10 9 7 16 -11
30 -14 11 -29 28 -36 39 -6 11 -12 15 -12 9z"/>
<path d="M1935 880 c-3 -5 1 -10 10 -10 9 0 13 5 10 10 -3 6 -8 10 -10 10 -2
0 -7 -4 -10 -10z"/>
<path d="M2270 882 c0 -8 -10 -13 -22 -12 -41 4 -59 0 -53 -10 4 -6 11 -7 17
-4 6 4 8 2 5 -3 -4 -6 -1 -16 7 -22 11 -9 18 -6 34 14 12 15 23 21 27 15 3 -5
14 -10 23 -10 13 0 14 2 3 9 -7 5 -9 11 -5 13 5 3 3 3 -5 1 -8 -2 -18 2 -23 9
-6 11 -8 10 -8 0z"/>
<path d="M2420 875 c0 -8 -11 -17 -25 -21 -14 -3 -25 -10 -25 -14 0 -5 -3 -15
-6 -24 -4 -11 -1 -16 10 -16 9 0 16 5 16 12 0 7 10 22 23 33 24 22 33 45 17
45 -5 0 -10 -7 -10 -15z"/>
<path d="M353 873 c-13 -2 -23 -9 -23 -16 0 -8 -3 -8 -12 1 -7 7 -21 12 -32
12 -15 -1 -11 -5 14 -16 36 -15 80 -7 80 16 0 5 -1 9 -2 9 -2 -1 -13 -4 -25
-6z"/>
<path d="M1645 870 c-2 -4 5 -14 17 -24 13 -12 19 -26 15 -42 -2 -14 -2 -22 1
-19 3 2 11 0 19 -6 9 -8 13 -8 13 -1 0 6 8 13 18 16 10 3 6 4 -8 3 -20 -2 -26
3 -28 26 -2 15 -9 27 -15 27 -7 0 -3 7 7 15 19 14 19 15 -8 13 -15 -1 -29 -5
-31 -8z"/>
<path d="M1978 873 c7 -3 16 -2 19 1 4 3 -2 6 -13 5 -11 0 -14 -3 -6 -6z"/>
<path d="M2500 870 c-8 -5 -10 -10 -5 -10 6 0 17 5 25 10 8 5 11 10 5 10 -5 0
-17 -5 -25 -10z"/>
<path d="M80 860 c0 -5 5 -10 10 -10 6 0 10 5 10 10 0 6 -4 10 -10 10 -5 0
-10 -4 -10 -10z"/>
<path d="M601 854 c0 -11 3 -14 6 -6 3 7 2 16 -1 19 -3 4 -6 -2 -5 -13z"/>
<path d="M635 860 c-3 -5 -1 -10 4 -10 6 0 11 5 11 10 0 6 -2 10 -4 10 -3 0
-8 -4 -11 -10z"/>
<path d="M670 860 c-9 -6 -10 -10 -3 -10 6 0 15 5 18 10 8 12 4 12 -15 0z"/>
<path d="M703 864 c3 -4 -4 -15 -16 -25 -12 -10 -17 -18 -11 -19 10 0 54 36
54 45 0 3 -7 5 -17 5 -9 0 -14 -3 -10 -6z"/>
<path d="M1484 855 c8 -8 18 -15 22 -15 3 0 1 7 -6 15 -7 8 -17 15 -22 15 -5
0 -3 -7 6 -15z"/>
<path d="M1715 860 c4 -6 11 -8 16 -5 14 9 11 15 -7 15 -8 0 -12 -5 -9 -10z"/>
<path d="M1873 839 c-11 -28 -10 -33 14 -55 14 -13 23 -30 20 -37 -3 -8 -1
-20 4 -28 6 -10 9 -6 9 14 0 16 4 26 9 22 21 -12 21 16 0 37 -15 16 -23 19
-26 11 -3 -7 -9 -13 -15 -13 -6 0 -7 15 -3 40 8 48 4 51 -12 9z"/>
<path d="M2654 856 c-7 -17 -44 -23 -44 -6 0 6 -6 10 -12 10 -7 -1 -3 -9 10
-20 21 -17 15 -39 -8 -25 -5 3 -18 0 -29 -7 -18 -11 -18 -13 -3 -24 9 -7 14
-16 9 -20 -4 -4 -13 -2 -19 4 -17 17 -33 15 -19 -2 15 -18 51 -27 51 -13 0 7
5 5 10 -3 8 -12 10 -9 10 11 0 29 33 65 49 54 7 -4 8 0 4 11 -5 14 -3 15 14 5
17 -8 24 -7 34 6 12 14 12 15 -1 11 -8 -3 -23 1 -32 10 -16 13 -18 13 -24 -2z"/>
<path d="M418 853 c7 -3 16 -2 19 1 4 3 -2 6 -13 5 -11 0 -14 -3 -6 -6z"/>
<path d="M1300 851 c0 -12 48 -46 55 -39 3 2 -9 14 -25 27 -17 12 -30 17 -30
12z"/>
<path d="M1423 853 c-15 -5 -17 -23 -4 -23 5 0 11 7 15 15 3 8 4 15 3 14 -1 0
-8 -3 -14 -6z"/>
<path d="M2533 848 c7 -21 -3 -31 -19 -17 -9 8 -11 6 -8 -8 4 -13 -3 -23 -20
-33 -14 -7 -26 -17 -26 -22 0 -4 -5 -8 -11 -8 -7 0 -17 -7 -23 -16 -7 -9 -18
-12 -29 -8 -23 9 -22 27 2 19 12 -4 21 0 25 11 5 13 3 14 -6 7 -7 -5 -29 -8
-48 -6 -26 2 -31 0 -20 -7 13 -9 13 -11 0 -21 -13 -9 -12 -10 3 -5 25 8 47 -3
47 -24 0 -11 5 -22 12 -26 8 -5 9 0 6 14 -6 22 0 26 32 23 11 -1 12 0 3 7 -9
6 -8 12 7 25 11 9 25 17 31 17 5 0 22 12 36 26 14 14 35 29 47 34 21 9 21 9 1
9 -12 1 -27 7 -34 14 -11 10 -13 9 -8 -5z"/>
<path d="M1786 841 c5 -5 20 -12 34 -16 24 -7 24 -7 5 9 -21 16 -56 23 -39 7z"/>
<path d="M1946 841 c-3 -5 1 -12 10 -15 20 -8 29 -1 19 13 -8 13 -22 14 -29 2z"/>
<path d="M2000 840 c0 -5 5 -10 10 -10 6 0 10 5 10 10 0 6 -4 10 -10 10 -5 0
-10 -4 -10 -10z"/>
<path d="M2166 834 c-11 -10 -14 -27 -11 -51 2 -20 0 -42 -6 -49 -8 -10 -2
-18 28 -31 21 -10 40 -21 41 -25 5 -12 40 -9 48 3 4 8 0 9 -15 4 -11 -3 -21
-2 -21 3 0 13 29 24 42 15 7 -4 8 -1 4 6 -5 7 -14 10 -22 7 -10 -4 -14 2 -14
19 0 24 16 42 28 30 3 -3 0 -10 -8 -15 -8 -5 -11 -12 -7 -16 4 -4 20 5 35 19
16 15 33 27 40 27 7 0 12 5 12 10 0 13 -17 13 -25 0 -4 -6 -14 -5 -27 3 -16 9
-22 9 -25 -1 -3 -6 -8 -10 -13 -7 -9 6 -23 -28 -24 -57 -1 -18 -5 -19 -39 -10
-25 6 -21 81 5 100 10 7 16 18 13 23 -9 13 -21 11 -39 -7z"/>
<path d="M2741 834 c0 -11 3 -14 6 -6 3 7 2 16 -1 19 -3 4 -6 -2 -5 -13z"/>
<path d="M65 831 c-3 -5 -1 -12 5 -16 5 -3 10 1 10 9 0 18 -6 21 -15 7z"/>
<path d="M360 830 c0 -5 4 -10 9 -10 6 0 13 5 16 10 3 6 -1 10 -9 10 -9 0 -16
-4 -16 -10z"/>
<path d="M412 820 c-29 -18 -31 -22 -20 -40 7 -11 19 -22 28 -25 8 -4 4 5 -9
19 l-24 26 31 11 c18 6 32 15 32 20 0 12 0 12 -38 -11z"/>
<path d="M1433 824 c-4 -10 -10 -11 -23 -4 -20 11 -31 -4 -22 -27 5 -15 32
-17 32 -3 0 6 7 10 15 10 8 0 15 4 15 9 0 5 8 11 18 13 14 3 12 5 -6 10 -15 4
-25 2 -29 -8z"/>
<path d="M1530 828 c0 -5 -4 -6 -10 -3 -5 3 -20 -3 -32 -14 -12 -12 -28 -21
-35 -21 -7 0 -13 -4 -13 -10 0 -14 13 -13 28 2 9 9 12 9 12 0 0 -7 7 -12 15
-12 10 0 15 7 13 18 -2 11 3 17 17 17 11 0 19 -5 18 -11 -1 -7 6 -10 17 -7 15
4 17 9 8 27 -9 22 -38 32 -38 14z"/>
<path d="M2440 830 c0 -5 7 -10 15 -10 8 0 15 -5 15 -12 0 -6 3 -8 6 -5 8 8
-14 37 -27 37 -5 0 -9 -4 -9 -10z"/>
<path d="M113 822 c-7 -5 -7 -10 1 -18 9 -8 15 -7 23 2 9 9 9 13 -1 17 -7 3
-18 2 -23 -1z"/>
<path d="M335 812 c18 -13 14 -29 -10 -42 -28 -15 -34 -36 -7 -25 9 4 25 10
35 12 29 9 14 63 -18 63 -7 0 -7 -3 0 -8z"/>
<path d="M900 810 c0 -5 5 -10 11 -10 5 0 7 5 4 10 -3 6 -8 10 -11 10 -2 0 -4
-4 -4 -10z"/>
<path d="M2707 800 c-12 -12 -29 -17 -48 -15 -27 4 -29 2 -23 -21 5 -20 2 -26
-15 -31 -11 -3 -18 -9 -15 -14 3 -5 10 -6 16 -3 6 4 15 0 20 -7 8 -11 9 -10 4
4 -3 9 -1 17 3 17 5 0 7 8 4 18 -3 12 1 19 11 19 19 0 19 1 6 -31 -9 -24 -8
-25 10 -14 13 9 18 19 14 32 -4 13 1 25 17 37 13 10 22 20 19 22 -3 2 -13 -4
-23 -13z"/>
<path d="M230 800 c0 -6 -8 -9 -17 -6 -12 4 -22 -2 -30 -19 -10 -22 -9 -25 8
-25 10 0 19 -4 19 -9 0 -6 -23 -7 -54 -4 -37 4 -56 2 -61 -7 -6 -10 1 -11 29
-6 24 5 36 3 36 -4 0 -6 10 -10 22 -8 25 3 74 83 57 93 -5 4 -9 1 -9 -5z"/>
<path d="M435 800 c-8 -13 15 -13 35 0 12 8 11 10 -7 10 -12 0 -25 -4 -28 -10z"/>
<path d="M814 797 c-7 -7 -30 -29 -53 -49 -24 -23 -35 -38 -26 -38 9 0 29 13
44 29 29 30 101 58 101 40 0 -6 5 -7 11 -3 17 10 -12 25 -35 18 -12 -4 -16 -2
-12 5 10 15 -16 13 -30 -2z"/>
<path d="M1771 796 c-16 -19 4 -75 21 -58 8 8 8 15 -2 27 -10 12 -10 18 0 30
7 8 8 15 2 15 -5 0 -15 -6 -21 -14z"/>
<path d="M0 791 c0 -5 9 -7 20 -4 26 7 26 13 0 13 -11 0 -20 -4 -20 -9z"/>
<path d="M463 762 c-21 -21 -45 -36 -52 -34 -9 3 -11 0 -7 -7 11 -18 45 -3 78
34 16 19 41 36 56 38 25 4 25 4 -5 6 -24 1 -40 -8 -70 -37z"/>
<path d="M1815 789 c-11 -16 -1 -19 13 -3 7 8 8 14 3 14 -5 0 -13 -5 -16 -11z"/>
<path d="M2420 796 c0 -2 7 -6 15 -10 8 -3 15 -1 15 4 0 6 -7 10 -15 10 -8 0
-15 -2 -15 -4z"/>
<path d="M2006 774 c-3 -9 -3 -20 0 -25 3 -6 1 -15 -5 -22 -5 -7 -6 -18 -2
-25 6 -10 11 -9 21 3 11 13 10 15 -6 9 -14 -4 -13 -1 6 15 24 19 25 19 28 1 4
-25 28 -45 37 -30 3 5 -1 13 -9 16 -9 3 -16 10 -16 15 0 12 37 11 45 -1 12
-19 21 -10 19 18 -3 38 -3 38 -12 26 -11 -17 -92 -25 -86 -9 3 7 1 16 -4 19
-6 3 -13 -1 -16 -10z"/>
<path d="M1270 771 c0 -6 4 -13 10 -16 6 -3 7 1 4 9 -7 18 -14 21 -14 7z"/>
<path d="M1841 764 c0 -11 3 -14 6 -6 3 7 2 16 -1 19 -3 4 -6 -2 -5 -13z"/>
<path d="M70 758 c0 -15 18 -17 30 -3 9 11 8 14 -9 12 -12 -1 -21 -5 -21 -9z"/>
<path d="M601 753 c-18 -19 -9 -26 14 -9 10 7 14 15 9 18 -5 3 -15 -1 -23 -9z"/>
<path d="M1517 763 c-12 -12 -7 -22 8 -17 8 4 15 10 15 15 0 11 -14 12 -23 2z"/>
<path d="M2710 761 c0 -5 9 -7 20 -4 11 3 20 7 20 9 0 2 -9 4 -20 4 -11 0 -20
-4 -20 -9z"/>
<path d="M244 748 c-4 -6 -8 -22 -10 -35 -3 -27 19 -31 44 -7 15 15 14 16 -6
10 -13 -5 -22 -3 -22 3 0 6 5 11 10 11 6 0 10 7 10 15 0 18 -16 20 -26 3z"/>
<path d="M696 745 c-19 -15 -19 -15 1 -15 11 0 23 7 27 15 7 19 -3 19 -28 0z"/>
<path d="M1975 750 c-3 -5 -1 -10 4 -10 6 0 11 5 11 10 0 6 -2 10 -4 10 -3 0
-8 -4 -11 -10z"/>
<path d="M2500 750 c0 -5 5 -10 10 -10 6 0 10 5 10 10 0 6 -4 10 -10 10 -5 0
-10 -4 -10 -10z"/>
<path d="M565 741 c-3 -5 -2 -12 3 -15 5 -3 9 1 9 9 0 17 -3 19 -12 6z"/>
<path d="M655 730 c3 -5 8 -10 11 -10 2 0 4 5 4 10 0 6 -5 10 -11 10 -5 0 -7
-4 -4 -10z"/>
<path d="M871 724 c0 -11 3 -14 6 -6 3 7 2 16 -1 19 -3 4 -6 -2 -5 -13z"/>
<path d="M1208 733 c7 -3 16 -2 19 1 4 3 -2 6 -13 5 -11 0 -14 -3 -6 -6z"/>
<path d="M1817 733 c-16 -15 -6 -30 18 -26 21 4 22 7 10 19 -15 16 -19 17 -28
7z"/>
<path d="M2705 728 c-11 -6 -27 -19 -36 -29 -17 -19 -55 -16 -74 6 -5 7 -18
15 -29 19 -14 5 -17 2 -12 -9 5 -14 4 -14 -16 0 -13 8 -31 15 -42 15 -19 0
-19 -1 3 -21 17 -16 30 -20 57 -15 28 6 34 4 34 -10 0 -12 6 -15 25 -12 13 3
26 0 28 -5 2 -6 19 4 38 22 19 18 43 37 54 42 13 5 15 8 5 8 -8 0 -24 -5 -35
-11z"/>
<path d="M370 720 c0 -5 5 -10 11 -10 5 0 7 5 4 10 -3 6 -8 10 -11 10 -2 0 -4
-4 -4 -10z"/>
<path d="M464 716 c-9 -10 -2 -13 32 -15 41 -1 57 10 34 24 -5 3 -10 1 -10 -4
0 -13 -37 -15 -42 -2 -1 5 -8 3 -14 -3z"/>
<path d="M1638 723 c7 -3 16 -2 19 1 4 3 -2 6 -13 5 -11 0 -14 -3 -6 -6z"/>
<path d="M751 699 c-23 -25 -26 -35 -11 -44 9 -6 45 53 37 62 -3 2 -14 -6 -26
-18z"/>
<path d="M918 713 c7 -3 16 -2 19 1 4 3 -2 6 -13 5 -11 0 -14 -3 -6 -6z"/>
<path d="M1128 713 c6 -2 18 -2 25 0 6 3 1 5 -13 5 -14 0 -19 -2 -12 -5z"/>
<path d="M1238 713 c6 -3 10 -8 7 -13 -3 -4 6 -10 19 -12 18 -4 22 -1 19 11
-2 9 -16 17 -31 17 -15 1 -21 -1 -14 -3z"/>
<path d="M1660 710 c-9 -6 -10 -10 -3 -10 6 0 15 5 18 10 8 12 4 12 -15 0z"/>
<path d="M2297 688 c-29 -32 -34 -78 -9 -86 10 -3 10 2 0 23 -16 36 5 52 61
49 47 -2 61 10 31 26 -15 8 -20 8 -20 -2 0 -8 -5 -6 -11 5 -14 24 -20 22 -52
-15z"/>
<path d="M29 693 l22 -18 -26 -27 c-14 -15 -25 -32 -25 -39 0 -15 44 30 53 55
8 21 -8 46 -30 46 -11 0 -9 -5 6 -17z"/>
<path d="M602 679 c-19 -17 -32 -31 -30 -33 1 -1 12 -8 23 -16 17 -12 18 -12
8 0 -18 20 -16 30 5 28 25 -3 92 13 92 22 0 15 -26 18 -45 4 -30 -22 -51 -17
-24 6 13 10 20 19 14 19 -5 0 -25 -13 -43 -30z"/>
<path d="M1576 686 c-14 -22 -14 -24 4 -29 10 -2 22 -1 27 3 4 5 17 10 28 12
17 3 16 6 -12 21 -30 16 -31 16 -47 -7z"/>
<path d="M1963 690 c-1 -14 4 -20 18 -20 17 0 18 3 7 20 -7 11 -15 20 -18 20
-3 0 -6 -9 -7 -20z"/>
<path d="M311 684 c0 -11 3 -14 6 -6 3 7 2 16 -1 19 -3 4 -6 -2 -5 -13z"/>
<path d="M1700 689 c0 -5 -4 -7 -10 -4 -5 3 -10 -3 -10 -14 0 -11 5 -23 10
-26 6 -3 10 1 10 9 0 9 5 16 10 16 6 0 10 7 10 15 0 8 -4 15 -10 15 -5 0 -10
-5 -10 -11z"/>
<path d="M2713 687 c4 -11 1 -17 -9 -17 -8 0 -12 -5 -9 -11 4 -5 12 -8 18 -6
7 2 17 -3 24 -12 11 -14 12 -14 13 2 0 9 -4 17 -10 17 -5 0 -10 6 -10 14 0 8
-5 18 -12 22 -8 5 -9 2 -5 -9z"/>
<path d="M5 680 c3 -5 8 -10 11 -10 2 0 4 5 4 10 0 6 -5 10 -11 10 -5 0 -7 -4
-4 -10z"/>
<path d="M110 673 c0 -10 4 -25 10 -33 5 -9 5 -17 -1 -20 -5 -4 1 -16 12 -29
17 -18 23 -20 30 -9 6 8 3 14 -6 16 -23 5 -17 22 8 22 16 0 18 3 8 9 -8 5 -11
16 -7 29 5 15 1 21 -16 26 -34 9 -38 8 -38 -11z"/>
<path d="M400 681 c0 -6 5 -13 10 -16 6 -3 10 1 10 9 0 9 -4 16 -10 16 -5 0
-10 -4 -10 -9z"/>
<path d="M530 676 c0 -8 7 -16 15 -20 10 -4 15 1 15 14 0 11 -7 20 -15 20 -8
0 -15 -6 -15 -14z"/>
<path d="M1200 676 c0 -9 5 -16 10 -16 6 0 10 4 10 9 0 6 -4 13 -10 16 -5 3
-10 -1 -10 -9z"/>
<path d="M1410 670 c-17 -15 -19 -20 -8 -20 17 0 44 27 36 35 -3 3 -15 -4 -28
-15z"/>
<path d="M1806 682 c-3 -6 -14 -8 -25 -5 -24 6 -29 -11 -22 -70 6 -46 7 -47
26 -32 16 12 17 14 3 9 -15 -5 -18 0 -18 29 0 41 17 58 35 34 16 -22 25 -21
25 1 0 24 -16 47 -24 34z"/>
<path d="M2115 682 c-25 -5 -45 -31 -44 -57 1 -16 2 -15 8 5 6 21 8 22 14 8 4
-11 17 -18 32 -18 19 0 26 -5 24 -17 -3 -30 1 -43 11 -43 6 0 8 15 4 38 -5 33
-3 39 12 39 11 0 35 1 54 2 30 2 32 4 15 12 -68 31 -97 38 -130 31z m49 -17
c5 0 11 -7 13 -15 4 -13 3 -13 -6 0 -6 8 -11 10 -11 4 0 -7 -7 -15 -16 -18 -8
-3 -12 -2 -9 4 3 6 1 10 -4 10 -6 0 -11 -4 -11 -10 0 -5 -4 -10 -10 -10 -5 0
-10 5 -10 11 0 16 33 39 45 31 5 -4 14 -7 19 -7z"/>
<path d="M2470 679 c0 -5 5 -7 10 -4 6 3 10 8 10 11 0 2 -4 4 -10 4 -5 0 -10
-5 -10 -11z"/>
<path d="M456 672 c-3 -3 -6 -14 -6 -26 0 -15 3 -17 12 -8 7 7 20 12 30 12 17
0 27 19 11 21 -5 0 -16 2 -25 4 -9 2 -19 0 -22 -3z"/>
<path d="M1235 670 c-3 -5 1 -10 9 -10 9 0 16 5 16 10 0 6 -4 10 -9 10 -6 0
-13 -4 -16 -10z"/>
<path d="M1922 660 c0 -14 2 -19 5 -12 2 6 2 18 0 25 -3 6 -5 1 -5 -13z"/>
<path d="M2025 670 c-3 -6 1 -7 9 -4 18 7 21 14 7 14 -6 0 -13 -4 -16 -10z"/>
<path d="M216 655 c-9 -26 -7 -32 5 -12 6 10 9 21 6 23 -2 3 -7 -2 -11 -11z"/>
<path d="M2396 658 c-27 -15 -69 -19 -77 -7 -3 6 -11 4 -19 -6 -8 -10 -9 -15
-1 -15 6 0 11 -9 11 -19 0 -11 6 -22 13 -25 6 -4 2 -4 -10 -2 -26 5 -42 -12
-23 -24 8 -5 21 0 34 11 19 19 21 19 33 3 8 -11 13 -13 13 -5 0 9 5 8 16 -3 8
-9 23 -15 32 -15 15 1 15 2 0 6 -21 5 -24 23 -5 23 6 0 22 3 35 6 18 5 22 2
22 -15 0 -11 5 -21 10 -21 6 0 9 5 8 11 -2 6 3 14 10 16 6 3 10 -1 9 -9 -2 -7
-2 -10 0 -5 3 4 12 7 21 7 13 0 11 4 -6 16 -12 8 -27 12 -34 8 -6 -4 -8 -3 -5
4 9 14 -3 43 -14 36 -5 -3 -9 1 -9 9 0 8 -7 18 -16 21 -21 8 -26 7 -48 -6z
m-1 -18 c-3 -5 -12 -10 -18 -10 -7 0 -6 4 3 10 19 12 23 12 15 0z m72 -36 c-4
-4 -13 -2 -20 4 -10 9 -22 7 -50 -8 -20 -11 -37 -17 -37 -13 0 10 16 35 21 33
2 -1 11 1 19 4 8 2 22 6 30 9 17 5 47 -19 37 -29z m-120 12 c-5 -15 -24 -18
-24 -3 0 8 6 14 14 14 7 0 12 -5 10 -11z"/>
<path d="M67 642 c-10 -10 -14 -22 -10 -25 3 -4 1 -7 -5 -7 -7 0 -12 -5 -12
-11 0 -6 9 -8 23 -3 28 8 24 4 32 37 8 31 -4 35 -28 9z"/>
<path d="M271 638 c-1 -21 3 -25 19 -21 11 3 20 1 20 -4 0 -5 7 -10 15 -10 27
0 16 17 -14 23 -17 4 -32 14 -34 23 -3 9 -5 4 -6 -11z"/>
<path d="M660 651 c0 -5 9 -11 20 -14 13 -3 20 0 20 9 0 8 -9 14 -20 14 -11 0
-20 -4 -20 -9z"/>
<path d="M1860 646 c8 -11 8 -15 -2 -19 -7 -2 -3 -2 10 0 12 2 22 -1 22 -6 0
-5 7 -11 14 -14 28 -11 5 22 -26 37 -24 12 -28 13 -18 2z"/>
<path d="M1940 646 c0 -9 -5 -16 -12 -16 -9 0 -9 -3 -1 -11 9 -9 16 -8 27 4
14 13 14 16 1 27 -12 10 -15 9 -15 -4z"/>
<path d="M2498 653 c12 -2 32 -2 45 0 12 2 2 4 -23 4 -25 0 -35 -2 -22 -4z"/>
<path d="M235 639 c-4 -6 -5 -12 -2 -15 2 -3 7 2 10 11 7 17 1 20 -8 4z"/>
<path d="M1226 642 c-3 -5 8 -6 25 -4 22 3 29 0 29 -12 0 -9 -5 -16 -11 -16
-5 0 -7 -4 -4 -10 3 -5 -1 -10 -9 -10 -9 0 -16 5 -16 10 0 6 -7 10 -16 10 -8
0 -12 -4 -9 -10 3 -5 3 -10 -2 -11 -73 -4 -93 -4 -93 2 0 4 6 9 13 12 6 2 -6
5 -28 5 -47 0 -62 -7 -44 -20 10 -7 8 -8 -8 -5 -14 3 -21 0 -20 -7 1 -7 -24
-12 -75 -14 -71 -3 -77 -1 -71 15 6 17 6 17 -10 1 -25 -25 -125 -43 -162 -30
-26 10 -28 10 -12 -2 30 -23 84 -28 120 -12 23 11 57 14 120 12 48 -1 90 1 93
6 4 5 12 7 20 4 7 -3 16 -1 20 5 3 6 16 9 27 7 12 -1 28 1 34 5 7 4 21 4 30
-2 11 -5 36 -6 63 -1 25 5 62 9 83 10 23 0 36 4 32 10 -3 6 -1 10 4 10 6 0 11
5 11 10 0 6 -9 10 -19 10 -11 0 -23 -4 -26 -10 -3 -5 -13 -10 -22 -10 -12 0
-13 3 -4 13 6 8 7 18 3 22 -4 5 1 5 10 2 10 -4 28 -3 39 1 15 6 1 9 -44 10
-36 1 -68 -2 -71 -6z"/>
<path d="M1656 638 c5 -7 -1 -9 -19 -4 -14 3 -29 1 -32 -4 -4 -6 -16 -8 -27
-5 -14 5 -21 1 -25 -15 -4 -17 -11 -20 -29 -16 -18 5 -22 3 -18 -9 5 -11 -1
-15 -26 -15 -17 0 -38 -6 -46 -14 -16 -17 -19 -30 -4 -21 6 3 10 1 10 -5 0 -6
5 -8 10 -5 6 4 7 11 4 17 -5 7 2 9 20 4 16 -4 26 -2 26 4 0 6 4 9 9 6 5 -4 11
-2 13 3 3 9 52 19 106 20 12 1 22 6 22 12 0 8 -14 10 -42 5 -40 -6 -42 -5 -23
10 12 9 34 14 58 12 38 -4 53 14 21 26 -10 4 -13 2 -8 -6z"/>
<path d="M1990 635 c-17 -21 -9 -27 13 -10 10 7 14 16 9 19 -5 3 -15 -1 -22
-9z"/>
<path d="M638 628 c6 -6 18 -8 28 -6 14 3 12 5 -9 10 -19 3 -25 2 -19 -4z"/>
<path d="M745 630 c-19 -8 -19 -9 3 -9 12 -1 22 4 22 9 0 6 -1 10 -2 9 -2 0
-12 -4 -23 -9z"/>
<path d="M2513 634 c11 -11 68 -14 62 -4 -3 6 -20 10 -37 10 -17 0 -29 -3 -25
-6z"/>
<path d="M2635 630 c-3 -5 -3 -10 2 -10 4 0 1 -5 -7 -10 -13 -8 -13 -10 2 -10
9 0 20 5 23 10 3 6 1 10 -5 10 -6 0 -8 5 -5 10 3 6 4 10 1 10 -3 0 -8 -4 -11
-10z"/>
<path d="M2693 622 c10 -10 15 -21 12 -24 -3 -3 6 -5 20 -5 14 0 25 3 25 8 0
5 -6 9 -14 9 -7 0 -19 7 -26 15 -7 8 -17 15 -23 15 -5 0 -3 -8 6 -18z"/>
<path d="M389 621 c11 -7 11 -9 0 -13 -8 -3 -11 -9 -7 -13 4 -4 15 -5 24 -1
13 5 14 9 4 21 -7 8 -18 15 -24 15 -6 0 -5 -4 3 -9z"/>
<path d="M908 623 c18 -2 45 -2 60 0 15 2 0 4 -33 4 -33 0 -45 -2 -27 -4z"/>
<path d="M1190 615 c0 -8 2 -15 4 -15 2 0 6 7 10 15 3 8 1 15 -4 15 -6 0 -10
-7 -10 -15z"/>
<path d="M2205 620 c3 -5 8 -10 11 -10 2 0 4 5 4 10 0 6 -5 10 -11 10 -5 0 -7
-4 -4 -10z"/>
<path d="M2591 618 c-1 -17 -18 -23 -50 -18 -10 1 -9 -4 4 -16 17 -18 17 -19
-6 -24 -20 -5 -21 -7 -7 -13 10 -3 30 0 45 8 26 14 26 15 6 15 -13 0 -23 5
-23 10 0 11 43 14 53 4 11 -11 -14 -46 -29 -40 -8 3 -14 1 -14 -4 0 -6 -8 -10
-19 -10 -33 0 -41 -22 -19 -50 14 -17 22 -21 25 -12 4 9 12 6 28 -10 42 -41
51 -47 66 -36 12 8 12 10 0 15 -7 3 -22 14 -33 25 -10 10 -23 16 -28 13 -6 -4
-10 -1 -10 4 0 6 -11 11 -25 11 -14 0 -25 4 -25 9 0 13 58 19 70 7 7 -7 10 -2
10 17 0 15 7 30 18 35 24 13 92 3 99 -14 9 -23 23 -16 21 11 -2 16 -8 25 -18
23 -8 -1 -39 2 -68 6 -41 6 -55 13 -62 30 -7 17 -9 17 -9 4z"/>
<path d="M520 610 c0 -5 5 -10 10 -10 6 0 10 5 10 10 0 6 -4 10 -10 10 -5 0
-10 -4 -10 -10z"/>
<path d="M2225 598 c-2 -13 -4 -41 -2 -62 1 -24 -3 -41 -11 -44 -6 -2 -12 1
-12 7 0 6 -7 8 -15 5 -23 -9 7 -34 33 -28 11 3 29 1 40 -5 16 -9 24 -7 36 5
18 18 13 34 -12 34 -14 0 -13 2 3 13 12 10 14 16 7 21 -7 4 -12 2 -12 -3 0 -6
-7 -11 -15 -11 -18 0 -20 -26 -2 -33 7 -4 6 -6 -4 -6 -24 -1 -32 39 -11 57 16
13 16 13 -1 8 -15 -5 -18 -1 -15 17 2 15 9 21 22 19 17 -3 18 -2 3 12 -21 21
-26 20 -32 -6z"/>
<path d="M235 600 c-3 -5 -1 -10 4 -10 6 0 11 5 11 10 0 6 -2 10 -4 10 -3 0
-8 -4 -11 -10z"/>
<path d="M624 588 c-7 -24 4 -38 15 -19 10 16 67 21 100 9 14 -5 32 -6 40 -2
9 4 22 8 29 10 23 4 26 13 7 20 -10 4 -26 2 -37 -5 -10 -6 -24 -8 -31 -4 -6 4
-35 8 -64 8 -44 2 -54 -1 -59 -17z"/>
<path d="M2670 600 c0 -5 5 -10 11 -10 5 0 7 5 4 10 -3 6 -8 10 -11 10 -2 0
-4 -4 -4 -10z"/>
<path d="M490 585 c0 -8 4 -15 10 -15 5 0 7 7 4 15 -4 8 -8 15 -10 15 -2 0 -4
-7 -4 -15z"/>
<path d="M560 590 c0 -5 5 -10 10 -10 6 0 10 5 10 10 0 6 -4 10 -10 10 -5 0
-10 -4 -10 -10z"/>
<path d="M1825 590 c-19 -8 -19 -9 3 -9 12 -1 22 4 22 9 0 6 -1 10 -2 9 -2 0
-12 -4 -23 -9z"/>
<path d="M1876 580 c9 -33 9 -33 33 -18 27 17 27 31 0 23 -13 -5 -25 -2 -31 6
-6 10 -7 6 -2 -11z"/>
<path d="M163 566 c-46 -21 -52 -30 -28 -40 9 -3 15 0 15 9 0 7 5 17 12 21 7
4 8 3 4 -4 -5 -8 1 -13 16 -14 13 0 36 -2 51 -3 16 -1 36 -9 44 -18 15 -15 15
-17 -1 -23 -11 -4 -22 0 -30 11 -10 14 -17 16 -32 7 -18 -11 -17 -11 6 -12 25
-1 24 -1 -5 -16 -29 -14 -30 -14 -3 -9 15 3 29 1 32 -4 7 -11 46 -2 46 11 0 5
6 6 13 1 6 -4 20 -8 30 -9 34 -3 36 -4 31 -19 -5 -11 -2 -13 10 -9 11 4 19 -1
25 -17 7 -16 10 -19 10 -7 1 11 14 18 41 23 22 4 38 11 34 16 -3 5 -1 9 5 9 5
0 12 -6 14 -12 4 -10 8 -10 15 1 8 11 10 11 15 0 3 -11 7 -11 17 -2 10 9 17 9
32 0 15 -10 21 -9 28 3 16 25 12 28 -30 23 -26 -4 -46 -1 -57 8 -11 9 -14 10
-9 2 5 -9 -1 -13 -23 -13 -16 0 -33 -5 -37 -11 -3 -6 -15 -9 -25 -6 -12 3 -19
0 -19 -9 0 -12 -2 -12 -14 -2 -8 7 -10 16 -5 19 14 8 -35 31 -59 27 -12 -1
-22 2 -24 7 -2 6 18 11 45 13 33 2 47 7 47 18 0 17 -28 18 -66 4 -15 -6 -35
-8 -43 -5 -13 5 -12 10 9 25 14 10 22 22 18 25 -4 4 -19 -2 -34 -14 -28 -22
-50 -28 -39 -11 3 6 -1 7 -10 3 -13 -5 -14 -7 -3 -14 16 -10 -2 -12 -26 -3
-13 5 -14 9 -5 20 18 22 8 22 -38 0z"/>
<path d="M460 580 c-13 -8 -12 -10 3 -10 9 0 17 5 17 10 0 12 -1 12 -20 0z"/>
<path d="M960 579 c0 -5 5 -7 10 -4 6 3 10 8 10 11 0 2 -4 4 -10 4 -5 0 -10
-5 -10 -11z"/>
<path d="M100 570 c0 -5 7 -10 16 -10 8 0 12 5 9 10 -3 6 -10 10 -16 10 -5 0
-9 -4 -9 -10z"/>
<path d="M1705 571 c-3 -6 -11 -9 -16 -6 -5 4 -9 -1 -9 -10 0 -12 6 -15 23 -9
30 9 33 12 20 25 -8 8 -13 8 -18 0z"/>
<path d="M1942 558 c6 -18 28 -21 28 -4 0 9 -7 16 -16 16 -9 0 -14 -5 -12 -12z"/>
<path d="M2013 556 c-17 -8 -21 -16 -16 -31 5 -17 4 -18 -10 -7 -16 14 -67 7
-67 -9 0 -5 4 -9 9 -9 5 0 17 -3 27 -7 12 -4 15 -3 10 5 -4 7 -3 12 3 12 5 0
14 -6 18 -12 9 -14 93 -20 93 -6 0 4 -7 8 -15 8 -8 0 -15 5 -15 10 0 6 -9 10
-19 10 -31 0 -34 17 -4 27 15 5 23 12 18 14 -6 3 -20 1 -32 -5z"/>
<path d="M2068 548 c-22 -22 -22 -28 -3 -28 8 0 15 5 15 10 0 6 5 9 11 8 16
-4 22 19 7 24 -7 3 -21 -4 -30 -14z"/>
<path d="M2190 556 c0 -9 -7 -12 -21 -9 -16 4 -20 2 -17 -8 2 -8 14 -15 26
-17 18 -3 22 2 22 22 0 14 -2 26 -5 26 -3 0 -5 -6 -5 -14z"/>
<path d="M17 541 c3 -9 12 -21 21 -28 8 -7 12 -19 9 -28 -4 -8 -2 -15 3 -15 6
0 10 5 10 11 0 6 7 9 15 6 8 -4 17 -2 20 3 3 5 -3 11 -14 15 -23 7 -36 35 -16
35 7 0 16 4 19 8 2 4 -13 8 -34 8 -30 1 -37 -3 -33 -15z"/>
<path d="M1248 553 c-31 -5 -37 -17 -31 -60 l5 -33 78 0 c44 0 91 5 107 11 16
6 29 6 31 1 1 -5 17 -8 34 -6 17 2 37 -1 45 -7 9 -9 13 -9 13 0 0 6 11 11 25
11 14 0 25 5 25 11 0 6 8 8 19 4 10 -3 24 1 31 10 17 20 5 32 -15 15 -8 -7
-15 -8 -15 -2 0 11 -54 11 -65 0 -4 -4 -13 -4 -21 -1 -8 3 -22 2 -31 -2 -10
-4 -41 -9 -69 -11 -60 -5 -83 11 -64 45 12 23 4 27 -20 11 -12 -8 -13 -13 -2
-30 18 -30 15 -40 -13 -40 -14 0 -25 6 -25 13 0 9 -3 8 -9 -2 -7 -11 -11 -10
-20 5 -6 11 -11 15 -11 9 0 -11 -20 15 -20 28 0 4 11 7 25 7 14 0 25 5 25 10
0 6 -1 9 -2 9 -2 -1 -15 -4 -30 -6z"/>
<path d="M1580 550 c-9 -6 -10 -10 -3 -10 6 0 15 5 18 10 8 12 4 12 -15 0z"/>
<path d="M2320 541 c-20 -38 7 -54 44 -26 17 13 18 17 6 28 -7 6 -10 7 -7 1 4
-6 -5 -16 -18 -22 -26 -12 -33 -4 -13 16 6 6 9 14 6 18 -4 3 -11 -4 -18 -15z"/>
<path d="M1144 539 c-8 -13 25 -24 37 -12 7 7 3 12 -10 16 -12 3 -24 1 -27 -4z"/>
<path d="M1290 543 c0 -5 5 -15 10 -23 8 -12 10 -11 10 8 0 12 -4 22 -10 22
-5 0 -10 -3 -10 -7z"/>
<path d="M1787 535 c-4 -8 -10 -15 -14 -14 -20 3 -34 -2 -28 -11 3 -5 12 -7
20 -3 9 3 15 -1 15 -8 0 -11 2 -11 10 1 7 12 11 10 19 -10 5 -14 10 -20 11
-15 1 6 8 -3 16 -20 12 -23 14 -25 10 -7 -3 14 1 25 10 29 16 6 19 33 4 33 -5
0 -10 -7 -10 -16 0 -26 -25 -9 -30 21 -6 32 -25 44 -33 20z"/>
<path d="M1860 539 c0 -14 27 -16 43 -4 15 11 13 12 -13 11 -16 -1 -30 -4 -30
-7z"/>
<path d="M90 530 c0 -5 5 -10 10 -10 6 0 10 5 10 10 0 6 -4 10 -10 10 -5 0
-10 -4 -10 -10z"/>
<path d="M448 533 c-25 -3 -38 -9 -38 -19 0 -11 5 -12 18 -6 20 10 158 9 225
-3 52 -9 68 7 20 20 -33 9 -172 13 -225 8z"/>
<path d="M1111 531 c-10 -6 -11 -13 -3 -27 10 -18 11 -18 17 -2 10 25 3 39
-14 29z"/>
<path d="M1600 530 c0 -5 5 -10 10 -10 6 0 10 5 10 10 0 6 -4 10 -10 10 -5 0
-10 -4 -10 -10z"/>
<path d="M2490 530 c-8 -5 -12 -11 -10 -14 3 -2 14 2 24 10 22 15 10 19 -14 4z"/>
<path d="M160 520 c0 -5 7 -7 15 -4 8 4 15 8 15 10 0 2 -7 4 -15 4 -8 0 -15
-4 -15 -10z"/>
<path d="M1010 522 c0 -5 -13 -7 -30 -4 -19 3 -30 0 -30 -8 0 -7 8 -9 19 -5
13 4 20 -1 25 -17 l7 -23 11 23 c6 12 17 22 25 22 7 0 13 5 13 10 0 6 -9 10
-20 10 -11 0 -20 -4 -20 -8z"/>
<path d="M830 511 c0 -5 5 -11 12 -13 6 -2 8 -10 4 -17 -6 -8 -11 -9 -20 -2
-18 15 -28 2 -12 -15 17 -16 54 -14 61 3 3 9 13 11 29 7 13 -3 27 -1 30 5 6
10 -18 15 -61 14 -7 -1 -13 3 -13 7 0 4 -7 10 -15 14 -8 3 -15 1 -15 -3z"/>
<path d="M1360 510 c0 -5 13 -10 29 -10 17 0 33 5 36 10 4 6 -8 10 -29 10 -20
0 -36 -4 -36 -10z"/>
<path d="M2382 500 c-10 -17 -10 -20 4 -20 8 0 12 -4 9 -10 -3 -6 1 -7 9 -4
13 5 13 10 4 27 -6 12 -11 23 -12 24 -1 1 -7 -7 -14 -17z"/>
<path d="M2688 513 c7 -3 16 -2 19 1 4 3 -2 6 -13 5 -11 0 -14 -3 -6 -6z"/>
<path d="M720 506 c0 -2 13 -6 29 -8 17 -2 28 -1 25 4 -5 8 -54 12 -54 4z"/>
<path d="M1887 490 c-3 -11 -1 -17 4 -14 6 3 16 0 24 -6 10 -9 19 -9 32 0 16
10 15 10 -5 5 -18 -5 -25 -2 -29 14 -7 27 -19 27 -26 1z"/>
<path d="M2741 497 c-1 -21 -18 -40 -46 -51 -16 -7 -17 -9 -5 -14 8 -3 18 -10
22 -16 5 -8 8 -7 8 2 0 6 7 12 16 12 13 0 14 3 5 13 -7 10 -7 17 0 24 6 6 9
19 6 29 -4 18 -5 18 -6 1z"/>
<path d="M1047 493 c-13 -13 -6 -18 26 -19 17 -1 24 1 15 3 -10 2 -18 9 -18
14 0 10 -14 12 -23 2z"/>
<path d="M2097 475 c6 -27 30 -52 41 -41 4 4 -1 13 -11 20 -9 7 -17 21 -17 30
0 9 -4 16 -9 16 -4 0 -6 -11 -4 -25z"/>
<path d="M2620 490 c0 -14 46 -23 76 -16 15 4 25 8 23 10 -10 9 -99 14 -99 6z"/>
<path d="M1680 470 c0 -13 5 -17 20 -13 11 3 20 9 20 13 0 4 -9 10 -20 13 -15
4 -20 0 -20 -13z"/>
<path d="M2480 480 c0 -5 5 -10 11 -10 5 0 7 5 4 10 -3 6 -8 10 -11 10 -2 0
-4 -4 -4 -10z"/>
<path d="M698 469 c-27 -15 -21 -29 7 -16 14 7 25 15 25 20 0 10 -11 8 -32 -4z"/>
<path d="M1164 466 c11 -32 -19 -55 -65 -49 -27 4 -39 2 -39 -7 0 -8 8 -10 26
-6 15 4 23 3 20 -2 -7 -12 28 -22 42 -13 5 3 11 15 14 26 3 16 11 20 42 18 38
-2 39 12 1 19 -11 1 -26 10 -33 18 -12 13 -13 13 -8 -4z"/>
<path d="M2155 470 c-3 -5 -1 -10 4 -10 6 0 11 5 11 10 0 6 -2 10 -4 10 -3 0
-8 -4 -11 -10z"/>
<path d="M776 446 c5 -21 3 -25 -10 -20 -9 3 -16 11 -16 16 0 6 -6 5 -15 -2
-13 -11 -13 -14 1 -27 20 -20 9 -30 -13 -12 -16 12 -17 12 -6 -2 8 -10 9 -19
2 -26 -5 -5 -11 -23 -12 -39 -2 -25 -6 -29 -31 -29 -22 0 -32 6 -40 26 -15 37
-36 59 -54 59 -12 0 -10 -6 9 -27 34 -40 55 -77 37 -69 -7 3 -21 9 -30 12 -10
4 -18 13 -18 20 0 16 -36 19 -45 4 -6 -9 8 -15 29 -11 5 1 3 -5 -4 -15 -9 -10
-16 -12 -18 -5 -5 15 -79 14 -84 -1 -3 -9 -9 -8 -22 5 -21 21 -27 22 -20 3 4
-9 -7 -15 -36 -20 -23 -3 -45 -4 -51 -1 -5 4 -9 -5 -9 -19 0 -28 9 -33 27 -15
7 7 13 7 17 0 4 -5 14 -8 24 -5 14 5 14 3 -2 -10 -19 -16 -19 -16 1 -16 25 0
39 15 23 25 -23 14 -10 35 23 35 119 -1 125 -1 131 16 6 16 8 15 26 -1 18 -16
18 -19 3 -41 -14 -22 -22 -24 -90 -24 -41 0 -72 -4 -69 -9 9 -15 128 -4 165
14 18 10 36 26 39 37 4 15 10 17 38 12 21 -4 40 -2 49 6 12 10 16 9 21 -5 4
-10 1 -21 -7 -25 -7 -5 -10 -12 -6 -16 4 -4 13 1 21 11 7 10 18 15 24 11 17
-10 15 -26 -4 -26 -8 0 -12 -4 -9 -10 12 -20 35 -10 35 15 0 14 4 25 8 25 4 0
8 9 9 20 1 11 -4 20 -12 20 -9 0 -12 -6 -9 -15 7 -16 -4 -19 -24 -7 -7 5 -10
16 -6 25 3 10 1 17 -6 17 -6 0 -8 -4 -5 -10 3 -6 -3 -10 -14 -10 -15 0 -19 6
-16 26 3 28 20 44 47 44 11 0 15 5 12 14 -3 7 2 16 10 19 9 4 16 11 16 17 0 6
-4 9 -9 6 -5 -3 -8 2 -7 11 0 9 -5 18 -12 20 -9 4 -11 -2 -6 -21z"/>
<path d="M1110 450 c-18 -14 -21 -20 -9 -20 9 0 24 9 34 20 23 26 8 26 -25 0z"/>
<path d="M1985 460 c20 -9 7 -15 -22 -11 -7 1 -13 -3 -13 -9 0 -5 10 -10 23
-10 12 0 29 -4 37 -9 8 -6 17 -8 21 -5 11 6 -36 54 -52 53 -8 0 -5 -4 6 -9z"/>
<path d="M2222 445 c-13 -29 -5 -33 14 -7 15 20 18 32 6 32 -5 0 -14 -11 -20
-25z"/>
<path d="M25 452 c-11 -4 -21 -16 -23 -26 -3 -18 -2 -18 13 -2 19 18 60 21 71
5 4 -8 -3 -9 -25 -4 -20 4 -31 3 -31 -4 0 -6 9 -11 20 -11 22 0 27 -15 8 -23
-9 -4 -7 -6 3 -6 19 -1 52 33 42 42 -3 4 1 7 10 7 21 0 21 -7 2 -26 -8 -9 -15
-23 -14 -32 0 -13 2 -14 6 -2 9 21 42 55 55 55 6 0 13 5 15 10 2 7 -14 11 -39
11 -24 1 -54 4 -68 7 -14 3 -34 2 -45 -1z"/>
<path d="M1015 450 c-8 -13 15 -13 35 0 12 8 11 10 -7 10 -12 0 -25 -4 -28
-10z"/>
<path d="M1568 428 c-13 -16 -28 -28 -35 -28 -7 0 -13 -3 -13 -7 0 -5 -11 -8
-25 -8 -14 0 -25 3 -25 8 0 4 -5 7 -11 7 -5 0 -8 -4 -5 -9 8 -12 -14 -19 -36
-13 -10 2 -15 9 -11 15 3 6 1 7 -5 3 -7 -4 -12 -13 -12 -21 0 -7 -12 -16 -27
-20 -25 -6 -26 -8 -10 -17 14 -7 23 -6 35 5 10 9 40 16 72 18 30 1 58 7 61 11
3 5 25 9 47 10 23 0 42 4 42 9 0 4 12 8 28 9 67 1 122 5 122 10 0 3 -20 10
-44 16 -38 8 -43 8 -39 -6 4 -13 3 -13 -5 -1 -9 12 -13 12 -26 2 -8 -7 -20
-10 -27 -6 -6 4 -15 1 -20 -6 -4 -7 -11 -10 -14 -7 -11 10 18 35 35 31 8 -2
24 3 35 11 19 13 17 14 -22 13 -33 -2 -47 -8 -65 -29z"/>
<path d="M2191 444 c0 -11 3 -14 6 -6 3 7 2 16 -1 19 -3 4 -6 -2 -5 -13z"/>
<path d="M2330 453 c-34 -6 -42 -16 -45 -54 -2 -18 0 -26 5 -19 6 10 9 9 13
-1 3 -8 6 -9 6 -2 1 8 8 8 31 0 17 -6 30 -15 30 -19 0 -4 7 -8 16 -8 8 0 13
-4 10 -8 -2 -4 46 -9 107 -10 62 -2 127 -5 144 -9 53 -9 98 4 100 28 2 20 1
20 -15 2 -10 -10 -33 -19 -54 -20 -39 -2 -52 12 -20 20 14 4 14 5 -3 6 -17 1
-18 3 -5 11 12 8 9 10 -10 6 -14 -3 -46 -8 -72 -11 -27 -3 -48 -11 -48 -18 0
-9 -3 -8 -8 1 -5 7 -17 11 -28 10 -28 -4 -104 12 -104 22 0 5 -6 10 -12 13 -7
2 -2 2 10 0 13 -2 21 0 18 5 -7 12 -56 22 -56 12 0 -4 -9 -10 -21 -13 -39 -10
-16 26 24 37 22 6 35 14 31 19 -4 4 -10 6 -13 6 -3 -1 -17 -4 -31 -6z m298
-100 c-10 -2 -28 -2 -40 0 -13 2 -5 4 17 4 22 1 32 -1 23 -4z"/>
<path d="M222 443 c-10 -4 -10 -8 -1 -19 14 -17 33 -19 23 -3 -5 9 1 10 22 5
27 -6 28 -5 10 9 -20 15 -32 17 -54 8z"/>
<path d="M299 436 c16 -19 69 -37 76 -26 7 11 -7 20 -39 22 -14 1 -26 6 -26
10 0 4 -5 8 -11 8 -8 0 -8 -4 0 -14z"/>
<path d="M914 439 c-3 -6 -15 -8 -26 -6 -17 5 -19 2 -15 -19 2 -13 0 -24 -4
-24 -18 0 -8 -16 11 -17 16 -1 18 2 10 23 -8 20 -6 24 9 24 10 0 24 7 31 15 8
9 9 15 2 15 -6 0 -14 -5 -18 -11z"/>
<path d="M1460 440 c0 -5 7 -10 15 -10 8 0 15 -4 15 -10 0 -5 5 -10 10 -10 7
0 7 6 0 20 -11 21 -40 28 -40 10z"/>
<path d="M520 430 c0 -5 5 -10 11 -10 5 0 7 5 4 10 -3 6 -8 10 -11 10 -2 0 -4
-4 -4 -10z"/>
<path d="M946 425 c-18 -13 -15 -35 5 -35 6 0 7 4 4 10 -3 5 0 7 9 4 8 -3 12
-12 9 -20 -6 -15 14 -19 35 -6 9 6 5 12 -13 20 -14 7 -24 16 -20 21 9 16 -9
20 -29 6z"/>
<path d="M1271 428 c0 -10 -6 -17 -12 -15 -6 1 -14 -4 -16 -10 -3 -8 4 -13 16
-13 13 0 21 -7 22 -17 0 -10 3 -13 5 -7 3 8 20 10 44 7 40 -6 46 0 34 31 -4
11 -18 16 -43 16 -29 -1 -33 -3 -19 -11 10 -5 25 -9 34 -7 9 2 19 -3 21 -9 5
-14 -18 -17 -54 -7 -14 4 -23 16 -26 33 -2 14 -5 18 -6 9z"/>
<path d="M1388 433 c6 -2 18 -2 25 0 6 3 1 5 -13 5 -14 0 -19 -2 -12 -5z"/>
<path d="M825 412 c6 -15 -14 -49 -30 -51 -5 0 -10 -9 -10 -18 0 -16 16 -18
173 -20 94 -1 172 2 172 7 0 5 3 16 7 26 4 12 3 15 -5 10 -7 -4 -12 -2 -12 4
0 6 -12 10 -27 8 -16 -2 -27 -8 -26 -15 2 -7 -1 -13 -6 -13 -5 0 -12 6 -14 13
-3 7 -6 5 -6 -5 -1 -10 -8 -18 -17 -18 -9 0 -12 5 -8 12 5 8 0 9 -17 4 -36
-12 -128 -12 -133 -1 -2 6 -11 1 -19 -10 -24 -32 -29 -12 -7 30 25 49 25 54 0
52 -13 -1 -19 -6 -15 -15z m295 -62 c0 -5 -9 -10 -20 -10 -11 0 -20 5 -20 10
0 6 9 10 20 10 11 0 20 -4 20 -10z"/>
<path d="M1882 419 c-13 -5 -20 -13 -17 -19 4 -6 -6 -10 -22 -11 l-28 -1 25
-9 c17 -6 9 -7 -29 -3 -47 4 -53 3 -42 -9 9 -12 9 -16 -1 -20 -7 -3 10 -3 37
0 29 3 59 14 72 26 16 14 37 20 73 20 36 1 50 5 50 15 0 10 -11 13 -40 10 -22
-2 -40 0 -40 4 0 10 -9 9 -38 -3z"/>
<path d="M640 410 c0 -9 39 -25 45 -18 2 2 -7 8 -21 15 -13 6 -24 7 -24 3z"/>
<path d="M150 398 c0 -10 -6 -18 -12 -18 -10 0 -9 -3 1 -9 15 -10 49 -4 69 12
10 8 16 7 23 -5 6 -10 17 -14 30 -11 12 4 25 0 29 -7 7 -11 11 -11 23 -1 11 8
17 9 22 1 4 -6 -5 -22 -20 -34 -17 -15 -23 -26 -16 -30 6 -4 11 -3 11 3 0 6
16 10 35 9 19 -1 38 2 42 5 3 4 -9 7 -28 8 -30 0 -31 1 -12 9 19 8 20 12 10
34 -12 25 -34 30 -50 11 -6 -6 -10 -6 -14 3 -2 6 -9 10 -14 6 -5 -3 -9 -3 -9
1 0 3 10 10 23 16 18 8 15 8 -13 3 -19 -3 -44 -6 -54 -6 -11 1 -27 -3 -37 -9
-13 -7 -21 -5 -28 8 -10 17 -10 17 -11 1z"/>
<path d="M458 385 c5 -30 18 -32 32 -6 14 28 13 31 -14 31 -19 0 -22 -4 -18
-25z"/>
<path d="M530 400 c0 -5 5 -10 10 -10 6 0 10 5 10 10 0 6 -4 10 -10 10 -5 0
-10 -4 -10 -10z"/>
<path d="M900 400 c0 -5 5 -10 10 -10 6 0 10 5 10 10 0 6 -4 10 -10 10 -5 0
-10 -4 -10 -10z"/>
<path d="M1175 401 c-9 -16 9 -20 23 -5 10 12 10 14 -2 14 -8 0 -17 -4 -21 -9z"/>
<path d="M2175 394 c-19 -16 -19 -16 10 -11 32 5 85 -16 85 -34 0 -7 -6 -6
-17 2 -16 13 -17 12 -5 -3 8 -9 11 -22 7 -29 -6 -8 -10 -7 -16 2 -5 8 -9 10
-9 4 0 -5 5 -17 10 -25 7 -12 10 -12 10 -1 0 8 6 11 16 7 12 -4 14 -1 9 13 -5
16 -2 18 15 14 11 -3 20 -12 20 -19 0 -8 7 -14 15 -14 8 0 15 -4 15 -10 0 -5
5 -10 10 -10 6 0 10 7 10 15 0 9 -9 15 -21 15 -20 0 -21 1 -5 25 14 22 15 25
1 25 -8 0 -15 -4 -15 -8 0 -16 -40 -7 -46 10 -3 10 -10 18 -15 18 -6 0 -7 5
-4 10 3 6 -3 10 -14 10 -10 0 -25 2 -33 5 -7 2 -22 -3 -33 -11z"/>
<path d="M2670 400 c19 -13 30 -13 30 0 0 6 -10 10 -22 10 -19 0 -20 -2 -8
-10z"/>
<path d="M0 381 c0 -12 6 -21 15 -21 8 0 15 3 15 6 0 3 -7 12 -15 20 -13 14
-15 13 -15 -5z"/>
<path d="M403 382 c-24 -4 -32 -22 -10 -22 15 0 43 18 37 22 -3 2 -15 2 -27 0z"/>
<path d="M1203 377 c0 -9 9 -12 26 -9 23 5 24 6 6 13 -29 11 -32 11 -32 -4z"/>
<path d="M2045 380 c3 -6 0 -10 -9 -10 -8 0 -17 -6 -19 -12 -4 -10 -8 -9 -16
2 -10 13 -13 12 -26 -4 -17 -23 -19 -36 -5 -36 6 0 10 5 10 10 0 6 3 9 8 9 26
-4 62 3 57 11 -3 6 3 10 14 10 12 0 21 -7 21 -15 0 -8 -8 -15 -17 -15 -15 0
-16 -2 -3 -10 13 -9 13 -10 0 -10 -9 0 -21 5 -27 11 -8 8 -19 8 -41 -2 -17 -7
-29 -16 -26 -20 2 -4 -7 -10 -21 -13 -14 -4 -25 -11 -25 -16 0 -6 -9 -10 -20
-10 -11 0 -20 -4 -20 -10 0 -17 44 -11 62 8 46 48 63 49 45 3 -8 -21 -16 -27
-31 -24 -21 3 -21 3 -1 -6 17 -8 17 -10 3 -10 -10 -1 -22 -10 -28 -20 -18 -34
-11 -36 21 -5 20 19 41 29 62 30 82 3 97 5 97 14 0 6 -7 10 -15 10 -17 0 -18
4 -9 38 4 13 14 22 23 21 29 -3 36 1 22 10 -9 6 -22 6 -33 0 -25 -13 -24 5 2
31 20 20 20 20 -8 26 -15 3 -33 7 -40 10 -7 2 -10 -1 -7 -6z m-25 -69 c0 -5
14 -8 30 -7 17 1 30 -1 30 -6 0 -4 -18 -8 -40 -8 -29 0 -40 4 -40 15 0 8 5 15
10 15 6 0 10 -4 10 -9z m53 -50 c4 -18 0 -20 -39 -19 -24 0 -44 2 -44 3 0 19
17 31 44 33 26 2 35 -2 39 -17z"/>
<path d="M2700 380 c-13 -8 -12 -10 3 -10 9 0 17 5 17 10 0 12 -1 12 -20 0z"/>
<path d="M490 360 c-11 -11 -27 -20 -35 -20 -8 0 -15 -4 -15 -10 0 -5 3 -10 8
-10 10 0 54 30 65 44 6 8 10 7 14 -1 6 -17 20 -16 27 2 8 23 -40 19 -64 -5z"/>
<path d="M938 373 c7 -3 16 -2 19 1 4 3 -2 6 -13 5 -11 0 -14 -3 -6 -6z"/>
<path d="M1721 370 c-16 -9 -6 -30 15 -30 15 0 20 25 6 34 -4 2 -14 1 -21 -4z"/>
<path d="M1150 361 c0 -17 18 -21 24 -6 3 9 0 15 -9 15 -8 0 -15 -4 -15 -9z"/>
<path d="M1660 356 c25 -14 40 -13 40 5 0 5 -15 9 -32 9 l-33 -1 25 -13z"/>
<path d="M176 330 c-23 -21 -40 -28 -52 -24 -18 7 -18 6 -1 -12 17 -18 17 -18
33 4 15 22 41 32 28 10 -4 -7 -3 -8 5 -4 6 4 9 12 6 17 -4 5 -2 9 3 9 6 0 12
7 16 15 8 22 1 19 -38 -15z"/>
<path d="M1228 353 c-21 -5 -23 -14 -6 -31 16 -16 31 -15 25 2 -3 7 0 19 6 25
11 11 6 12 -25 4z"/>
<path d="M1563 347 c-57 -13 -57 -32 -1 -23 l43 7 -23 -21 c-26 -25 -27 -33
-5 -56 11 -11 18 -13 21 -5 4 13 42 15 42 2 0 -5 10 -7 22 -3 17 4 20 2 15
-12 -5 -11 -3 -15 5 -10 7 5 9 2 5 -9 -4 -11 -2 -14 9 -10 16 6 18 19 4 28
-15 9 -12 52 5 69 10 10 12 17 4 21 -6 4 -13 -2 -16 -13 -3 -12 -11 -18 -18
-16 -10 4 -12 -1 -8 -15 4 -15 1 -21 -11 -21 -9 0 -16 8 -17 18 0 10 -3 12 -6
5 -7 -19 -53 -16 -53 3 0 8 4 13 9 9 5 -3 13 -1 16 5 4 6 16 8 28 5 18 -5 19
-4 7 5 -12 8 -8 9 14 4 21 -5 27 -4 22 5 -4 6 -14 11 -23 11 -9 0 -24 6 -32
13 -12 10 -26 11 -58 4z"/>
<path d="M1901 340 c-13 -11 -29 -20 -37 -20 -7 0 -16 -5 -20 -12 -4 -7 -3 -8
4 -4 7 4 12 3 12 -2 0 -6 -16 -13 -35 -16 -19 -4 -35 -11 -35 -15 0 -12 74 -5
78 7 8 24 30 44 41 38 9 -6 9 -11 0 -22 -13 -16 -1 -18 21 -4 12 7 12 12 3 21
-10 10 -9 17 4 31 23 26 -4 24 -36 -2z"/>
<path d="M40 341 c0 -5 7 -11 15 -15 8 -3 15 -1 15 3 0 5 -7 11 -15 15 -8 3
-15 1 -15 -3z"/>
<path d="M118 343 c7 -3 16 -2 19 1 4 3 -2 6 -13 5 -11 0 -14 -3 -6 -6z"/>
<path d="M265 340 c3 -5 8 -10 11 -10 2 0 4 5 4 10 0 6 -5 10 -11 10 -5 0 -7
-4 -4 -10z"/>
<path d="M408 343 c7 -3 16 -2 19 1 4 3 -2 6 -13 5 -11 0 -14 -3 -6 -6z"/>
<path d="M1185 340 c-3 -5 -1 -10 4 -10 6 0 11 5 11 10 0 6 -2 10 -4 10 -3 0
-8 -4 -11 -10z"/>
<path d="M1284 342 c-10 -6 -27 -42 -20 -42 1 0 12 11 24 25 21 24 19 33 -4
17z"/>
<path d="M1426 335 c-3 -8 2 -19 12 -24 9 -5 14 -13 10 -17 -4 -4 -19 1 -34
10 -24 17 -26 17 -39 0 -10 -15 -16 -16 -28 -6 -12 10 -16 10 -19 0 -4 -10 -8
-10 -21 1 -15 11 -17 11 -17 -2 0 -8 6 -17 12 -19 10 -4 8 -9 -3 -21 -9 -9
-19 -13 -23 -10 -3 4 -6 1 -6 -5 0 -19 17 -23 30 -7 17 20 25 19 27 -5 2 -24
-32 -27 -62 -6 -19 13 -20 12 -20 -15 0 -26 3 -29 32 -29 17 0 33 3 36 8 2 4
2 1 0 -7 -5 -19 88 -7 103 14 17 23 92 17 110 -9 8 -11 14 -15 14 -8 0 7 13
12 30 12 17 0 30 -5 30 -12 0 -9 2 -10 8 -2 4 6 18 15 31 19 l25 8 -24 19
c-24 20 -24 20 -34 -1 -9 -22 -32 -28 -38 -11 -1 5 -19 10 -38 11 -19 2 -43 6
-53 11 -9 5 -23 5 -30 1 -6 -4 -16 -8 -22 -8 -12 -1 -44 -13 -67 -26 -14 -7
-18 -5 -18 6 0 8 11 17 25 21 14 3 25 10 25 15 0 5 7 9 15 9 9 0 18 7 21 15 5
11 11 12 24 5 22 -12 33 0 24 25 -6 14 -3 16 14 10 13 -4 22 -2 22 4 0 6 -3
10 -7 10 -5 -1 -21 -1 -37 0 -21 1 -27 5 -22 16 3 8 1 15 -3 15 -5 0 -11 -7
-15 -15z m-16 -52 c0 -9 -51 -53 -61 -53 -5 0 -6 7 -3 15 4 9 0 15 -10 15 -30
0 -16 19 17 23 17 2 38 5 45 5 6 1 12 -1 12 -5z m230 -68 c0 -2 -9 -9 -20 -15
-16 -9 -18 -8 -14 5 5 13 34 22 34 10z m-360 -15 c0 -5 -4 -10 -10 -10 -5 0
-10 5 -10 10 0 6 5 10 10 10 6 0 10 -4 10 -10z"/>
<path d="M1470 340 c0 -6 7 -10 15 -10 8 0 15 2 15 4 0 2 -7 6 -15 10 -8 3
-15 1 -15 -4z"/>
<path d="M234 332 c3 -6 2 -13 -4 -17 -5 -3 -10 -11 -10 -18 0 -6 6 -3 13 8
10 12 16 14 21 7 4 -7 2 -12 -4 -12 -7 0 -9 -7 -6 -15 3 -10 -1 -18 -11 -22
-9 -4 -19 -1 -21 5 -2 7 -9 9 -15 5 -15 -9 -28 -12 -102 -18 -72 -7 -95 -13
-95 -26 0 -10 53 -6 84 6 10 5 21 3 25 -3 4 -6 17 -9 29 -5 12 3 19 10 15 16
-3 5 -1 7 4 4 6 -4 31 -4 55 -1 37 5 46 11 55 35 10 25 8 30 -14 45 -14 9 -23
11 -19 6z"/>
<path d="M2350 331 c0 -5 7 -12 16 -15 24 -9 27 -7 10 9 -17 17 -26 19 -26 6z"/>
<path d="M2180 321 c0 -6 -7 -11 -15 -11 -8 0 -15 -8 -14 -17 0 -11 3 -13 6
-5 2 6 11 12 18 12 18 0 28 17 15 25 -5 3 -10 1 -10 -4z"/>
<path d="M30 309 c0 -5 9 -9 20 -9 11 0 20 2 20 4 0 2 -9 6 -20 9 -11 3 -20 1
-20 -4z"/>
<path d="M1134 309 c-3 -5 -10 -6 -16 -3 -6 4 -8 2 -4 -4 4 -6 -5 -12 -21 -15
-26 -4 -26 -4 5 -6 17 0 32 3 32 8 0 5 6 11 14 14 8 3 13 -1 12 -11 0 -9 -9
-19 -19 -22 -28 -8 -108 1 -101 11 3 5 -10 9 -28 9 l-33 -1 33 -17 c18 -10 29
-22 25 -27 -4 -4 -3 -5 4 -1 7 4 42 7 78 8 36 0 68 5 71 9 3 5 0 9 -5 9 -6 0
-11 7 -11 15 0 8 6 15 14 15 31 0 22 15 -10 17 -18 1 -36 -3 -40 -8z"/>
<path d="M1767 309 c7 -7 15 -10 18 -7 3 3 -2 9 -12 12 -14 6 -15 5 -6 -5z"/>
<path d="M2705 309 c-16 -6 -14 -8 13 -8 33 -1 41 4 20 12 -7 2 -22 1 -33 -4z"/>
<path d="M1530 301 c0 -6 5 -13 10 -16 6 -3 10 1 10 9 0 9 -4 16 -10 16 -5 0
-10 -4 -10 -9z"/>
<path d="M2405 301 c-3 -5 -1 -12 5 -16 5 -3 10 1 10 9 0 18 -6 21 -15 7z"/>
<path d="M2454 275 c-5 -26 -3 -40 5 -43 6 -2 11 -13 11 -24 0 -17 2 -18 15
-8 11 9 13 16 5 24 -5 5 -10 21 -10 36 0 14 -4 31 -9 39 -7 11 -11 4 -17 -24z"/>
<path d="M2513 298 c2 -7 11 -11 18 -9 8 2 20 4 27 4 27 1 10 17 -19 17 -20 0
-29 -4 -26 -12z"/>
<path d="M2642 299 c-13 -5 -28 -6 -33 -3 -5 3 -17 -3 -27 -12 -16 -17 -16
-18 1 -11 10 4 33 7 51 7 22 0 33 5 33 15 0 8 -1 15 -1 14 -1 0 -12 -4 -24
-10z"/>
<path d="M879 285 c25 -8 49 -11 55 -7 13 8 -28 20 -69 20 -26 1 -24 -1 14
-13z"/>
<path d="M1733 292 c-13 -2 -23 -9 -23 -16 0 -7 10 -12 23 -12 14 1 22 -5 21
-14 -1 -9 9 -16 25 -17 24 -1 25 -1 6 13 -10 8 -20 21 -21 30 -3 20 -4 21 -31
16z"/>
<path d="M2255 280 c-3 -5 -12 -7 -20 -3 -11 4 -13 1 -9 -11 7 -18 24 -22 24
-6 0 6 5 10 11 10 13 0 40 -26 33 -33 -3 -2 9 -4 25 -3 17 0 31 6 31 13 0 7
-7 10 -17 6 -12 -5 -15 -2 -10 10 3 9 2 19 -3 22 -6 4 -10 1 -10 -4 0 -6 -7
-11 -15 -11 -8 0 -15 5 -15 10 0 13 -17 13 -25 0z"/>
<path d="M88 273 c7 -3 16 -2 19 1 4 3 -2 6 -13 5 -11 0 -14 -3 -6 -6z"/>
<path d="M282 260 c-19 -31 -12 -39 17 -21 9 6 10 14 4 25 -7 14 -10 13 -21
-4z"/>
<path d="M562 260 c-7 -11 -10 -20 -6 -20 7 0 34 27 34 34 0 13 -16 5 -28 -14z"/>
<path d="M1225 270 c3 -5 11 -10 16 -10 6 0 7 5 4 10 -3 6 -11 10 -16 10 -6 0
-7 -4 -4 -10z"/>
<path d="M2120 265 c6 -8 9 -18 6 -24 -3 -5 9 -9 28 -9 19 0 39 -3 45 -6 15
-9 81 4 81 16 0 5 -13 7 -29 3 -33 -7 -123 13 -115 26 3 5 -2 9 -12 9 -13 0
-14 -3 -4 -15z"/>
<path d="M2690 269 c-14 -4 -42 -7 -62 -8 -21 -1 -38 -5 -38 -10 0 -6 23 -7
53 -4 28 3 65 5 81 4 16 0 27 1 25 2 -2 2 -11 7 -19 13 -9 6 -26 8 -40 3z"/>
<path d="M865 260 c27 -12 43 -12 25 0 -8 5 -22 9 -30 9 -10 0 -8 -3 5 -9z"/>
<path d="M940 260 c-9 -6 -10 -10 -3 -10 6 0 15 5 18 10 8 12 4 12 -15 0z"/>
<path d="M2393 255 c-16 -17 -17 -29 -3 -20 6 3 13 -1 16 -9 6 -16 44 -23 44
-8 -1 13 -30 46 -30 34 0 -7 -4 -12 -10 -12 -5 0 -7 7 -4 15 8 19 3 19 -13 0z"/>
<path d="M445 250 c-3 -5 -1 -10 4 -10 6 0 11 5 11 10 0 6 -2 10 -4 10 -3 0
-8 -4 -11 -10z"/>
<path d="M480 250 c0 -5 5 -10 11 -10 5 0 7 5 4 10 -3 6 -8 10 -11 10 -2 0 -4
-4 -4 -10z"/>
<path d="M1526 246 c3 -9 11 -16 16 -16 13 0 5 23 -10 28 -7 2 -10 -2 -6 -12z"/>
<path d="M655 240 c-3 -5 -2 -10 4 -10 5 0 13 5 16 10 3 6 2 10 -4 10 -5 0
-13 -4 -16 -10z"/>
<path d="M857 235 c-4 -9 -1 -15 9 -15 9 0 12 -5 8 -12 -4 -6 -3 -8 4 -5 13 9
9 40 -5 44 -6 2 -13 -3 -16 -12z"/>
<path d="M950 240 c-8 -5 -23 -7 -34 -4 -12 4 -17 2 -14 -6 4 -14 6 -14 58 -5
22 4 40 11 40 16 0 12 -31 11 -50 -1z"/>
<path d="M1195 239 c-19 -7 -19 -8 3 -8 29 -1 28 -5 -13 -47 -31 -31 -37 -33
-50 -20 -19 19 -19 25 2 48 9 10 12 18 7 18 -13 0 -47 -40 -40 -47 3 -3 1 -15
-5 -25 -8 -14 -8 -23 0 -31 8 -8 11 -7 11 4 0 12 2 12 9 0 7 -10 25 -12 80 -6
63 6 69 9 55 22 -11 12 -18 13 -27 4 -6 -6 -16 -11 -21 -11 -6 0 -4 5 4 10 12
8 12 10 -5 10 -19 1 -19 1 3 19 21 19 30 55 15 64 -5 3 -17 1 -28 -4z"/>
<path d="M1810 235 c-6 -8 -19 -14 -28 -13 -32 2 -52 -2 -52 -12 0 -5 7 -7 15
-4 8 3 29 1 47 -5 21 -7 44 -7 63 -2 23 7 25 10 10 11 -11 1 -29 2 -40 1 -20
-1 -20 -1 0 8 21 9 52 4 61 -10 3 -5 12 -9 20 -9 14 0 14 2 0 15 -8 8 -24 15
-35 15 -11 0 -23 5 -26 10 -9 14 -21 12 -35 -5z"/>
<path d="M2674 228 c-17 -7 -16 -8 3 -4 13 2 26 0 29 -5 3 -5 -11 -9 -31 -9
-23 0 -38 -5 -42 -15 -7 -19 -5 -20 25 -29 12 -4 22 -3 22 3 0 5 -10 12 -22
14 -14 3 -8 5 15 6 23 0 36 -3 32 -9 -3 -6 4 -10 17 -9 13 0 17 3 11 6 -7 2
-13 9 -13 15 0 6 7 8 15 4 8 -3 15 -1 15 4 0 6 -8 10 -17 10 -14 0 -15 2 -5 9
20 12 -28 20 -54 9z"/>
<path d="M76 223 c-8 -9 -8 -23 2 -22 18 3 22 -2 10 -15 -7 -8 -15 -10 -18 -6
-3 4 -11 1 -19 -8 -13 -14 -11 -15 20 -8 32 6 98 -16 107 -36 2 -5 11 -8 19
-8 12 0 13 3 4 13 -6 8 -7 17 -3 21 4 4 -6 4 -22 0 -21 -5 -27 -4 -22 5 4 6 2
11 -4 11 -7 0 -24 13 -40 30 -15 16 -30 26 -34 23z"/>
<path d="M207 215 c-5 -11 -11 -15 -15 -10 -4 6 -17 11 -30 13 -18 1 -23 -2
-20 -15 2 -10 10 -18 18 -19 8 -1 17 -2 20 -4 3 -1 34 -3 70 -4 72 -1 84 -21
13 -21 -27 0 -43 -4 -43 -11 0 -17 21 -23 41 -13 15 8 79 -14 79 -27 0 -2 -27
-2 -60 0 -33 2 -57 -1 -54 -5 3 -5 10 -7 15 -4 5 4 9 2 9 -3 0 -6 14 -7 35 -2
20 4 38 4 41 -1 3 -5 10 -7 15 -4 13 9 50 -5 44 -16 -4 -5 -1 -9 5 -9 7 0 9 7
6 16 -3 9 -6 18 -6 20 0 2 -7 4 -15 4 -8 0 -15 5 -15 10 0 7 6 7 19 0 28 -14
51 -12 51 4 0 16 34 31 49 21 5 -3 12 -1 16 5 3 5 32 10 63 9 41 0 51 -3 37
-9 -14 -6 -8 -7 20 -5 22 2 40 4 40 5 0 1 8 3 18 5 11 2 17 -3 17 -15 0 -10 7
-20 15 -24 8 -3 15 -2 15 3 0 5 18 9 40 9 39 1 53 -11 28 -21 -7 -3 -2 -6 12
-6 14 -1 32 -6 40 -11 11 -7 5 -10 -25 -11 -22 0 -34 -3 -27 -6 19 -7 102 7
102 17 0 5 -6 7 -14 4 -7 -3 -16 2 -19 10 -4 9 -13 16 -22 16 -8 0 -15 5 -15
10 0 6 -9 10 -21 10 -19 0 -19 1 -4 17 14 13 21 14 36 5 14 -9 21 -8 32 2 9 9
19 11 28 5 20 -13 31 -11 23 4 -6 10 -4 10 7 0 16 -16 66 -17 71 -2 2 6 26 11
53 12 28 0 42 3 33 5 -10 2 -18 12 -18 23 0 10 -5 19 -11 19 -5 0 -8 -4 -5 -9
12 -18 -22 -30 -85 -30 -94 1 -109 0 -108 -9 3 -19 -2 -26 -11 -12 -7 12 -14
12 -43 2 -18 -7 -43 -12 -56 -12 -12 0 -19 -4 -16 -10 3 -6 -1 -7 -9 -4 -9 3
-16 12 -16 19 0 12 -49 16 -60 5 -3 -3 -23 -2 -45 1 l-40 6 45 2 45 3 -34 9
c-27 8 -42 6 -78 -11 -25 -12 -53 -18 -64 -15 -11 4 -27 1 -35 -6 -13 -10 -17
-10 -24 0 -5 9 -10 10 -14 3 -3 -6 -2 -13 4 -17 19 -12 11 -26 -9 -15 -11 5
-27 7 -35 4 -10 -4 -18 1 -22 12 -3 11 -10 27 -15 36 -13 25 -13 24 26 20 21
-3 35 -10 35 -18 0 -8 -6 -11 -15 -8 -8 4 -15 1 -15 -5 0 -20 32 -12 37 10 3
11 9 17 12 12 3 -4 35 -5 71 -2 36 3 54 7 40 8 -14 1 -38 4 -55 7 -16 2 -48 6
-70 8 -22 2 -55 7 -73 11 -29 7 -34 5 -39 -14 -4 -14 -11 -20 -20 -17 -8 3
-18 6 -23 6 -5 0 -10 10 -12 23 -3 21 -4 21 -11 2z m768 -53 c-3 -3 -11 0 -18
7 -9 10 -8 11 6 5 10 -3 15 -9 12 -12z"/>
<path d="M232 221 c4 -13 18 -16 19 -4 0 4 -5 9 -11 12 -7 2 -11 -2 -8 -8z"/>
<path d="M795 215 c-16 -7 -33 -12 -36 -10 -14 9 -98 14 -103 6 -3 -4 -17 -6
-31 -3 -14 2 -25 0 -25 -6 0 -13 42 -20 101 -16 27 2 49 -1 49 -6 0 -6 7 -10
16 -10 8 0 12 5 9 10 -4 6 12 10 42 10 42 1 46 2 31 14 -10 7 -15 16 -11 19
10 11 -9 7 -42 -8z"/>
<path d="M1010 219 c0 -5 -4 -7 -10 -4 -5 3 -10 1 -10 -4 0 -6 7 -11 15 -11 8
0 15 7 15 15 0 8 -2 15 -5 15 -3 0 -5 -5 -5 -11z"/>
<path d="M1160 209 c0 -11 4 -18 10 -14 5 3 7 12 3 20 -7 21 -13 19 -13 -6z"/>
<path d="M2590 213 c0 -10 -5 -11 -18 -4 -12 6 -28 4 -53 -8 -20 -10 -51 -18
-70 -19 -19 -1 -49 -4 -66 -6 -34 -5 -41 2 -22 21 8 8 8 13 0 17 -6 4 -11 0
-11 -8 0 -9 -5 -16 -11 -16 -6 0 -8 -9 -4 -20 5 -14 2 -20 -9 -20 -12 0 -16
10 -16 35 0 19 -5 35 -11 35 -7 0 -10 -13 -7 -34 2 -19 1 -33 -3 -30 -4 2 -10
0 -14 -6 -9 -15 -27 -12 -20 3 4 6 -3 1 -14 -12 -23 -25 -43 -22 -21 4 8 10 9
15 1 15 -6 0 -11 -5 -11 -11 0 -5 -5 -7 -10 -4 -6 3 -7 17 -4 30 5 20 2 24
-15 22 -16 -1 -21 -8 -21 -32 l0 -31 -80 -10 c-44 -5 -80 -6 -80 -2 0 5 9 8
20 8 11 0 20 5 20 11 0 8 4 8 14 0 8 -7 17 -8 20 -3 3 6 -3 12 -14 15 -11 3
-23 1 -26 -4 -3 -5 -16 -9 -30 -9 -15 0 -23 -4 -19 -11 4 -6 1 -9 -6 -8 -8 2
-48 -1 -89 -6 -87 -10 -180 -12 -180 -5 0 3 -42 6 -93 7 -106 3 -101 -16 7
-21 34 -2 68 -6 74 -10 5 -3 22 -2 36 4 18 6 26 6 26 -1 0 -6 4 -8 8 -5 5 3
48 7 95 10 66 3 87 1 91 -9 3 -10 -8 -16 -42 -20 -26 -3 -54 -7 -62 -8 -8 -1
-15 -10 -16 -20 -1 -12 -1 -13 3 -2 4 15 49 21 114 17 16 -1 29 4 33 14 3 8 2
13 -3 10 -5 -3 -11 0 -14 7 -3 8 0 14 6 15 7 0 48 2 92 3 63 2 83 7 93 21 7
10 21 18 30 18 12 0 7 -8 -16 -29 -17 -17 -32 -32 -32 -35 0 -3 15 -5 33 -5
17 1 24 3 15 6 -10 2 -18 8 -18 13 0 10 31 24 47 21 6 -1 14 3 18 9 3 5 11 10
17 10 6 0 3 -9 -7 -20 -10 -11 -15 -23 -12 -27 4 -3 7 -1 7 5 0 7 6 12 14 12
8 0 18 9 21 20 7 22 39 27 51 8 5 -7 3 -8 -6 -3 -9 5 -11 4 -6 -4 4 -6 24 -11
44 -10 20 1 62 -1 92 -4 l55 -6 -45 12 c-44 13 -46 26 -2 22 12 -1 22 2 22 7
0 4 -13 8 -30 8 -16 0 -30 5 -30 11 0 7 14 10 35 7 19 -2 35 -1 35 3 0 4 29
10 65 14 53 5 65 10 65 24 0 10 -7 18 -15 18 -8 0 -15 -6 -15 -14z m-184 -66
c4 -4 3 -7 -2 -8 -5 0 -22 -2 -37 -4 -24 -3 -26 -1 -17 10 12 14 43 15 56 2z"/>
<path d="M1070 210 c0 -5 5 -10 11 -10 5 0 7 5 4 10 -3 6 -8 10 -11 10 -2 0
-4 -4 -4 -10z"/>
<path d="M2387 213 c-4 -3 -7 -11 -7 -17 0 -6 5 -5 12 2 6 6 9 14 7 17 -3 3
-9 2 -12 -2z"/>
<path d="M30 194 c0 -8 5 -12 10 -9 6 3 10 10 10 16 0 5 -4 9 -10 9 -5 0 -10
-7 -10 -16z"/>
<path d="M2060 206 c0 -9 30 -14 35 -6 4 6 -3 10 -14 10 -12 0 -21 -2 -21 -4z"/>
<path d="M2140 199 c0 -5 -4 -7 -10 -4 -5 3 -10 1 -10 -5 0 -6 -4 -9 -9 -6 -5
3 -11 -3 -14 -13 -3 -14 -1 -18 9 -14 8 3 14 9 14 14 0 5 7 9 15 9 8 0 15 7
15 15 0 8 -2 15 -5 15 -3 0 -5 -5 -5 -11z"/>
<path d="M1755 190 c-3 -5 -1 -10 4 -10 6 0 11 5 11 10 0 6 -2 10 -4 10 -3 0
-8 -4 -11 -10z"/>
<path d="M2030 190 c0 -6 7 -10 15 -10 8 0 15 2 15 4 0 2 -7 6 -15 10 -8 3
-15 1 -15 -4z"/>
<path d="M2230 184 c0 -8 5 -12 10 -9 6 4 8 11 5 16 -9 14 -15 11 -15 -7z"/>
<path d="M2265 191 c-3 -5 -1 -12 5 -16 5 -3 10 1 10 9 0 18 -6 21 -15 7z"/>
<path d="M1970 174 c0 -8 -6 -14 -12 -15 -7 0 -22 -2 -33 -5 -44 -9 -169 -12
-154 -4 9 7 2 8 -23 7 -21 -2 -38 0 -38 5 0 4 -4 8 -10 8 -5 0 -10 -9 -10 -20
0 -21 15 -27 25 -10 3 6 13 10 21 10 8 0 12 -4 9 -10 -7 -11 -6 -12 95 -12 51
-1 85 4 107 15 18 10 41 17 53 17 18 0 30 19 13 21 -5 0 -16 2 -25 4 -10 2
-18 -3 -18 -11z"/>
<path d="M1643 166 c-6 -8 -9 -17 -6 -20 4 -3 -4 -6 -16 -6 -14 0 -20 4 -15
12 5 7 3 8 -5 3 -19 -11 0 -25 42 -32 38 -6 52 9 20 21 -14 6 -14 8 3 21 14
11 15 14 4 14 -8 0 -20 -6 -27 -13z"/>
<path d="M1845 170 c-8 -13 5 -13 25 0 13 8 13 10 -2 10 -9 0 -20 -4 -23 -10z"/>
<path d="M0 160 c0 -5 4 -10 9 -10 6 0 13 5 16 10 3 6 -1 10 -9 10 -9 0 -16
-4 -16 -10z"/>
<path d="M1406 162 c-15 -3 -16 -6 -5 -13 11 -7 9 -9 -8 -9 -14 0 -21 -5 -17
-13 3 -9 -13 -12 -70 -9 -41 2 -82 0 -92 -6 -13 -7 -7 -9 27 -5 24 2 99 1 166
-4 94 -6 119 -6 112 4 -7 7 -33 11 -70 9 -64 -3 -75 5 -31 22 54 21 69 22 81
9 13 -17 72 -9 79 11 2 6 -1 12 -7 12 -6 0 -11 -5 -11 -11 0 -8 -11 -9 -32 -4
-42 10 -98 13 -122 7z"/>
<path d="M2585 148 c-18 -17 -20 -18 -23 -3 -3 15 -5 15 -16 -1 -13 -17 -41
-11 -31 7 4 5 2 9 -4 9 -19 0 -24 -23 -8 -35 9 -7 14 -15 10 -18 -3 -4 3 -7
15 -7 12 0 22 5 22 11 0 5 4 8 9 5 4 -3 21 5 36 18 15 13 23 26 19 28 -5 3
-18 -3 -29 -14z"/>
<path d="M1032 144 c-14 -16 -5 -18 17 -5 7 5 9 11 5 14 -5 3 -15 -1 -22 -9z"/>
<path d="M1270 145 c8 -9 28 -14 54 -13 37 1 38 2 8 5 -18 2 -30 8 -28 12 3 4
-7 8 -21 9 -22 2 -24 0 -13 -13z"/>
<path d="M977 143 c-9 -2 -15 -8 -13 -11 2 -4 -20 -5 -50 -4 -34 3 -54 0 -54
-7 0 -6 22 -11 53 -12 28 -1 57 -2 62 -4 6 -1 16 -3 23 -3 6 -1 12 -8 12 -14
0 -9 16 -12 55 -10 35 3 55 8 55 16 0 8 -11 11 -32 9 -23 -3 -29 -1 -19 5 8 6
9 12 3 16 -5 3 -15 -1 -22 -9 -24 -29 -46 -17 -41 23 2 12 -1 13 -32 5z"/>
<path d="M2638 128 c3 -12 10 -17 19 -14 8 3 33 6 56 7 33 0 38 2 22 9 l-20 9
20 1 c12 1 15 4 7 7 -7 3 -19 0 -26 -6 -7 -6 -16 -8 -20 -4 -3 4 -19 7 -35 8
-23 1 -27 -2 -23 -17z"/>
<path d="M20 132 c-19 -4 -12 -8 30 -16 33 -7 62 -9 73 -3 16 7 18 6 12 -13
-6 -19 -5 -21 11 -12 13 7 24 6 41 -5 12 -8 28 -13 35 -10 8 4 6 6 -4 6 -10 1
-18 5 -18 9 0 12 -70 43 -81 37 -5 -4 -14 -3 -21 1 -15 10 -45 12 -78 6z"/>
<path d="M515 129 c-18 -7 -17 -8 7 -8 15 -1 30 -5 33 -11 3 -5 20 -10 37 -10
37 0 34 7 -4 12 -14 2 -32 9 -39 15 -8 6 -22 7 -34 2z"/>
<path d="M442 100 c-11 -18 -10 -20 13 -20 14 0 25 -4 25 -9 0 -5 6 -11 13
-14 11 -4 10 2 -2 29 -17 39 -31 43 -49 14z"/>
<path d="M7 93 c7 -2 19 -2 26 0 6 3 1 5 -13 5 -14 0 -19 -2 -13 -5z"/>
<path d="M508 93 c6 -2 18 -2 25 0 6 3 1 5 -13 5 -14 0 -19 -2 -12 -5z"/>
<path d="M637 68 c5 -23 3 -27 -11 -22 -9 4 -16 1 -16 -6 0 -8 9 -10 27 -5 33
8 42 16 26 22 -25 9 -12 23 15 17 24 -7 26 -6 13 9 -7 9 -24 16 -36 15 -20 -2
-23 -6 -18 -30z"/>
<path d="M1153 93 c-23 -9 -14 -22 24 -38 53 -22 364 -14 404 10 4 3 10 1 14
-5 3 -5 42 -10 85 -10 43 0 80 -3 83 -7 2 -5 2 -2 1 5 -2 7 7 12 24 13 15 0
36 5 47 10 15 7 9 8 -20 3 -67 -10 -215 -13 -215 -5 0 5 -33 8 -74 7 -42 0
-69 -5 -62 -9 6 -5 -1 -6 -17 -2 -19 4 -26 2 -22 -5 4 -6 -6 -10 -24 -10 -36
0 -42 17 -8 23 l22 4 -23 2 c-12 0 -25 -6 -28 -14 -4 -11 -21 -15 -58 -15 -31
0 -46 4 -38 9 11 6 10 10 -5 16 -10 4 -28 9 -40 10 -11 2 -29 5 -40 8 -10 3
-24 3 -30 0z m90 -32 c8 -8 3 -11 -16 -11 -15 0 -27 4 -27 9 0 5 -10 12 -22
14 -13 2 -6 3 16 2 21 -2 43 -8 49 -14z"/>
<path d="M2285 90 c3 -5 8 -10 11 -10 2 0 4 5 4 10 0 6 -5 10 -11 10 -5 0 -7
-4 -4 -10z"/>
<path d="M2390 83 c0 -12 3 -14 8 -7 4 7 16 14 27 17 15 4 14 5 -7 6 -21 1
-28 -4 -28 -16z"/>
<path d="M2580 92 c0 -11 22 -32 34 -32 5 0 1 7 -10 15 -18 14 -17 15 10 9 21
-5 27 -4 22 5 -8 12 -56 15 -56 3z"/>
<path d="M2695 91 c-3 -5 -1 -12 5 -16 5 -3 10 1 10 9 0 18 -6 21 -15 7z"/>
<path d="M2728 93 c7 -3 16 -2 19 1 4 3 -2 6 -13 5 -11 0 -14 -3 -6 -6z"/>
<path d="M35 70 c-42 -19 -37 -26 20 -33 28 -3 27 -4 -15 -15 -45 -12 -45 -12
-5 -6 22 3 45 6 52 6 7 1 9 6 6 11 -4 6 6 8 27 4 18 -4 53 -7 79 -8 31 0 40
-3 27 -8 -17 -6 -17 -8 -4 -14 9 -3 19 0 21 8 7 16 -1 25 -24 25 -9 0 -19 7
-23 15 -3 8 -13 15 -23 14 -16 0 -15 -1 2 -9 19 -7 19 -8 2 -15 -16 -7 -82 18
-97 36 -3 3 -23 -2 -45 -11z m60 -10 c15 -6 7 -9 -30 -8 -39 0 -45 2 -25 8 32
10 31 10 55 0z"/>
<path d="M738 79 c-10 -5 -18 -7 -18 -3 0 3 -7 1 -15 -6 -11 -9 -12 -15 -5
-20 16 -10 61 0 54 12 -4 6 0 14 7 19 20 12 -2 11 -23 -2z"/>
<path d="M905 80 c-3 -5 -1 -10 4 -10 6 0 11 5 11 10 0 6 -2 10 -4 10 -3 0 -8
-4 -11 -10z"/>
<path d="M1314 75 c-19 -14 -18 -14 4 -15 13 0 22 6 22 15 0 19 -1 19 -26 0z"/>
<path d="M2050 82 c-52 -5 -62 -22 -13 -22 23 0 45 5 48 11 9 14 6 15 -35 11z"/>
<path d="M2326 74 c-8 -21 -8 -24 5 -24 5 0 7 5 4 10 -4 6 5 10 20 10 15 0 24
4 20 10 -10 16 -42 12 -49 -6z"/>
<path d="M2460 82 c0 -4 8 -8 18 -9 9 -1 26 -3 37 -6 11 -2 14 -2 7 0 -7 3
-10 9 -7 14 4 5 -8 9 -24 9 -17 0 -31 -4 -31 -8z"/>
<path d="M2550 82 c0 -12 19 -26 26 -19 2 2 -2 10 -11 17 -9 8 -15 8 -15 2z"/>
<path d="M2665 80 c-3 -5 -1 -10 4 -10 6 0 11 5 11 10 0 6 -2 10 -4 10 -3 0
-8 -4 -11 -10z"/>
<path d="M293 60 c26 -21 47 -26 47 -12 0 9 -44 32 -62 32 -6 0 1 -9 15 -20z"/>
<path d="M527 70 c6 -7 9 -20 5 -29 -5 -13 -3 -14 10 -3 9 7 24 9 34 5 17 -6
17 -5 5 10 -8 10 -16 15 -19 13 -2 -3 -14 0 -26 6 -17 8 -19 8 -9 -2z"/>
<path d="M915 66 c-35 -13 -44 -46 -13 -46 14 0 18 5 14 15 -4 10 1 15 15 15
15 0 19 -5 15 -15 -4 -11 2 -15 22 -14 17 1 20 3 10 6 -10 2 -18 9 -18 15 0 5
7 8 15 4 9 -3 15 0 15 8 0 10 -7 12 -22 8 -14 -3 -19 -2 -14 6 8 14 2 14 -39
-2z"/>
<path d="M1628 73 c7 -3 16 -2 19 1 4 3 -2 6 -13 5 -11 0 -14 -3 -6 -6z"/>
<path d="M2110 69 c0 -5 5 -7 10 -4 6 3 10 8 10 11 0 2 -4 4 -10 4 -5 0 -10
-5 -10 -11z"/>
<path d="M1040 60 c0 -5 -9 -10 -20 -10 -11 0 -20 -4 -20 -10 0 -6 27 -10 60
-10 33 0 60 4 60 9 0 6 -16 7 -37 4 -31 -5 -35 -4 -30 10 4 10 2 17 -3 17 -6
0 -10 -4 -10 -10z"/>
<path d="M2232 59 c18 -12 61 -11 53 0 -3 5 -19 9 -36 9 -20 -1 -26 -4 -17 -9z"/>
<path d="M437 53 c7 -2 10 -10 7 -17 -3 -7 8 -18 23 -24 24 -11 26 -11 11 1
-10 8 -18 18 -18 22 0 4 8 4 18 0 11 -4 14 -3 7 4 -5 5 -21 11 -35 14 -14 2
-20 2 -13 0z"/>
<path d="M2400 50 c0 -5 5 -10 10 -10 6 0 10 5 10 10 0 6 -4 10 -10 10 -5 0
-10 -4 -10 -10z"/>
<path d="M265 40 c3 -5 14 -10 23 -10 15 0 15 2 2 10 -20 13 -33 13 -25 0z"/>
<path d="M378 42 c-16 -2 -28 -8 -28 -14 0 -6 10 -8 26 -4 20 5 25 4 22 -6 -4
-9 5 -14 26 -15 23 -1 26 1 12 6 -11 4 -22 14 -25 22 -4 8 -17 13 -33 11z"/>
<path d="M825 40 c-3 -5 -20 -7 -38 -4 -24 4 -28 3 -17 -5 8 -6 35 -10 60 -9
26 0 35 3 21 5 -19 4 -21 7 -10 14 9 5 10 9 2 9 -6 0 -15 -4 -18 -10z"/>
<path d="M2088 43 c7 -3 16 -2 19 1 4 3 -2 6 -13 5 -11 0 -14 -3 -6 -6z"/>
<path d="M2155 30 c-3 -6 1 -7 9 -4 18 7 21 14 7 14 -6 0 -13 -4 -16 -10z"/>
<path d="M2512 26 c-15 -5 -137 -12 -272 -16 l-245 -7 275 3 c151 2 298 6 325
9 33 3 43 2 30 -4 -13 -5 6 -7 50 -3 68 5 83 8 74 16 -9 9 -211 11 -237 2z"/>
<path d="M728 23 c7 -3 16 -2 19 1 4 3 -2 6 -13 5 -11 0 -14 -3 -6 -6z"/>
<path d="M1618 23 c6 -2 18 -2 25 0 6 3 1 5 -13 5 -14 0 -19 -2 -12 -5z"/>
<path d="M145 10 c3 -5 8 -10 11 -10 2 0 4 5 4 10 0 6 -5 10 -11 10 -5 0 -7
-4 -4 -10z"/>
<path d="M320 9 c0 -5 5 -7 10 -4 6 3 10 8 10 11 0 2 -4 4 -10 4 -5 0 -10 -5
-10 -11z"/>
<path d="M515 10 c3 -5 11 -10 16 -10 6 0 7 5 4 10 -3 6 -11 10 -16 10 -6 0
-7 -4 -4 -10z"/>
<path d="M1248 13 c7 -3 16 -2 19 1 4 3 -2 6 -13 5 -11 0 -14 -3 -6 -6z"/>
<path d="M73 3 c9 -2 23 -2 30 0 6 3 -1 5 -18 5 -16 0 -22 -2 -12 -5z"/>
</g>
</svg>
